<?xml version="1.0" encoding="iso-8859-1"?>
<!-- Generator: Adobe Illustrator 19.1.1, SVG Export Plug-In . SVG Version: 6.00 Build 0)  -->
<svg version="1.1" id="Layer_1" xmlns="http://www.w3.org/2000/svg" xmlns:xlink="http://www.w3.org/1999/xlink" x="0px" y="0px"
	 viewBox="0 0 4012.474 1778.594" style="enable-background:new 0 0 4012.474 1778.594;" xml:space="preserve">
<g>
	<g>
		<ellipse style="fill:#C0BEBB;" cx="2006.237" cy="885.297" rx="1969" ry="872.791"/>
		<path style="fill:#020D2C;" d="M3606.403,886.304c0-83.286,61.208-153.129,143.17-170.795
			C3574.216,360.227,2860.292,94.725,2006.237,94.725c-854.043,0-1567.964,265.572-1743.334,621.572h0.334c0,0,0-0.803,0-0.813
			c83,16.45,142.852,86.21,142.852,170.79c0,83.309-61.717,150.666-143.712,168.465
			c173.528,356.33,884.112,623.589,1739.893,623.589c855.731,0,1574.241-267.232,1747.823-623.531
			C3666.057,1038.458,3606.403,970.987,3606.403,886.304z"/>
		<ellipse style="fill:#918F93;" cx="212.089" cy="885.297" rx="101.422" ry="95.814"/>
		<ellipse style="fill:#918F93;" cx="3793.233" cy="885.297" rx="101.422" ry="95.814"/>
		<ellipse style="fill:#E3E6DE;" cx="212.089" cy="885.297" rx="50.946" ry="48.129"/>
		<ellipse style="fill:#E3E6DE;" cx="3793.233" cy="885.297" rx="50.946" ry="48.129"/>
	</g>
	<path style="fill:#C0BEBB;" d="M692.462,399.411l0.463,879.833h0c-35.375-19.416-61.302-52.316-61.303-90.964V423.137
		c-9.117,5.757-60.078,36.218-61.299,36.947v760.469l0,0c-40.135-24.626-59.212-63.211-59.197-108.419l0.208-615.125
		c-10.212,6.304-49.175,37.343-63.874,48.012v601.857c0,50.864,26.539,98.495,71.011,127.171
		c82.111,52.944,196.234,119.584,237.826,132.995V365.568C735.018,372.322,697.191,396.379,692.462,399.411z"/>
	<path style="fill:#C0BEBB;" d="M2918.976,1534.029V342.549l25.008,6.825c23.48,6.408,39.767,27.736,39.767,52.075v1114.226
		c5.868-1.316,64.104-19.812,68.701-21.572V378.863l27.022,8.077c22.96,6.863,38.646,28.041,38.52,52.005l0.214,1033.32
		c8.27-2.561,60.401-22.812,64.719-24.874V370.266c0-28.868-18.042-54.647-45.16-64.544
		c-84.509-30.84-201.362-59.789-293.909-82.678v1329.734C2853.143,1550.861,2908.412,1537.746,2918.976,1534.029z"/>
	<path style="fill:#C0BEBB;" d="M1054.237,348.297v-91.442c-44.333,4.108-207,58.442-245,87.036v1082.811
		c41,23.745,209,86.545,245,94.918v-105.657l-167-62.186V918.297h96v-74h-96V413.41L1054.237,348.297z"/>
	<path style="fill:#C0BEBB;" d="M1790.237,226.632v-95.523c-55,2.034-265,22.615-333,33.933v1440.509
		c57,9.155,277,31.218,333,33.943V1527.41l-232-31.126V925.297h136v-88h-136V253.122L1790.237,226.632z"/>
	<g>
		<g>
			<g>
				<line style="fill:#C0BEBB;" x1="1388.619" y1="799.534" x2="1355.857" y2="820.333"/>
				<path style="fill:#C0BEBB;" d="M1361.795,826.222l17.525-11.048c9.87-6.223,15.86-17.072,15.868-28.74l0.368-570.868
					c0.014-21.672-19.465-38.151-40.834-34.536c-89.987,15.224-194.809,40.506-254.486,57.328v1293.879
					c49.47,13.547,193.255,42.919,265.109,57.361c21.667,4.355,41.891-12.214,41.891-34.315V874.631
					c0-12.395-6.376-23.918-16.878-30.502L1361.795,826.222z"/>
			</g>
			<path style="fill:#020D2C;" d="M1164.162,303.56v458.888l131.582-17.43c15.127-2.004,26.429-14.902,26.429-30.161V316.511
				c0-23.656-21.741-41.335-44.9-36.511L1164.162,303.56z"/>
		</g>
		<path style="fill:#020D2C;" d="M1285.631,898.058l-118.525-11.35v573.013l134.255,22.915c14.984,2.557,28.664-8.986,28.664-24.186
			V946.906C1330.025,921.616,1310.806,900.468,1285.631,898.058z"/>
	</g>
	<path style="fill:#C0BEBB;" d="M2147.331,139.991c-3.045-0.46-119.424-14.74-303.094-11.22v1513.054
		c11.54,0.787,95.843,2.735,104.482,2.708l-0.383-1396.554l151.26,7.103c52.36,8.55,57.999,45.06,57.999,92.182l-0.117,1297.286
		c15.119-0.674,80.759-5.971,91.759-6.726V271.56C2249.237,224.217,2229.863,152.457,2147.331,139.991z"/>
	<path style="fill:#C0BEBB;" d="M2311.237,137.649v1495.297c29-1.693,66-4.654,91-6.9V144.549
		C2373.237,142.165,2351.237,139.872,2311.237,137.649z"/>
	<path style="fill:#C0BEBB;" d="M2788.237,442.297v-54.394c0-61.121-5.489-152.26-71.697-182.371
		c-72.724-33.075-142.509-40.351-229.629-52.121c-7.254-0.255-20.674,7.955-20.674,20.19v1423.171
		c0,13.721,8.323,21.559,17.423,20.108c83.624-13.819,175.32-18.965,239.418-48.173c66.457-30.283,65.159-126.331,65.159-191.217
		V934.297h-203v77h123v333.879c0,75.987-24.167,148.94-158.379,150.249L2546.991,262.5c119.406,0,161.246,78.519,161.246,125.403
		v54.394H2788.237z"/>
	<g>
		<path style="fill:#C0BEBB;" d="M3401.852,428.267c-93.376,11.164-160.615,226.218-160.615,404.353v590.264
			c18-6.125,64.967-28.684,78.907-36.548l0.082-303.071l148.276-85.431l-0.458,303.67c15.458-9.667,63.193-43.059,74.193-54.409
			V519.094C3518.237,500.321,3422.015,439.761,3401.852,428.267z"/>
		<path style="fill:#020D2C;" d="M3435.454,510.34c-44.512,0-114.633,221.468-114.633,457.306l148.416-95.239V532.665
			L3435.454,510.34z"/>
	</g>
</g>
</svg>
