<?xml version="1.0" encoding="iso-8859-1"?>
<!-- Generator: Adobe Illustrator 19.1.1, SVG Export Plug-In . SVG Version: 6.00 Build 0)  -->
<svg version="1.1" id="Layer_1" xmlns="http://www.w3.org/2000/svg" xmlns:xlink="http://www.w3.org/1999/xlink" x="0px" y="0px"
	 viewBox="0 0 1920 1080" enable-background="new 0 0 1920 1080" xml:space="preserve">
<g>
	<g>
		<radialGradient id="SVGID_1_" cx="953.132" cy="263.6069" r="283.5989" gradientUnits="userSpaceOnUse">
			<stop  offset="0" style="stop-color:#FFFFFF"/>
			<stop  offset="0.4655" style="stop-color:#F0EAD2"/>
			<stop  offset="1" style="stop-color:#E1D3A2"/>
		</radialGradient>
		<rect x="609.603" y="56.617" fill="url(#SVGID_1_)" width="687.057" height="413.979"/>
		<rect x="610.061" y="56.617" opacity="0.54" fill="#F9F8D4" width="687.057" height="413.979"/>
	</g>
	<g>
		<g>
			<path fill="#3A4141" d="M605.641,405.167v63.821h8.723v-50.393c0-2.172,2.384-4.522,4.477-4.522h11.977v-8.905H605.641z"/>
			<path fill="#7A8485" d="M606.417,406.083v62h7.153v-48.955c0.013-3.17,2.222-5.836,5.472-5.795h10.917v-7.25H606.417z"/>
		</g>
		<g>
			<path fill="#3A4141" d="M1300.359,405.167v63.821h-8.724v-50.393c0-2.172-2.384-4.522-4.477-4.522h-11.977v-8.905H1300.359z"/>
			<path fill="#7A8485" d="M1299.583,406.083v62h-7.153v-48.955c-0.013-3.17-2.222-5.836-5.472-5.795h-10.917v-7.25H1299.583z"/>
		</g>
	</g>
</g>
<g>
	<rect x="299.018" y="800.994" fill="#798989" width="1320" height="95.071"/>
	<polygon fill="#95A5A6" points="443.018,540.481 299.018,800.994 1619.018,800.994 1475.018,540.481 	"/>
	<polygon fill="#ACB9B8" points="1364.017,468.982 552.995,468.982 443.018,540.481 1474.017,540.481 	"/>
</g>
<g>
	<g>
		<path fill="#121214" stroke="#FFFFFF" stroke-width="3" stroke-miterlimit="10" d="M435.277,586.18
			c8.21-15.896,25.767-23.492,39.215-16.967c13.448,6.525,17.694,24.702,9.484,40.598c-8.21,15.896-25.767,23.493-39.215,16.967
			S427.067,602.076,435.277,586.18z"/>
		<path fill="#121214" stroke="#FFFFFF" stroke-width="3" stroke-miterlimit="10" d="M555.993,586.18
			c8.21-15.896,25.767-23.492,39.215-16.967c13.448,6.525,17.694,24.702,9.484,40.598c-8.21,15.896-25.767,23.493-39.215,16.967
			C552.029,620.252,547.783,602.076,555.993,586.18z"/>
		<path fill="#121214" stroke="#FFFFFF" stroke-width="3" stroke-miterlimit="10" d="M676.694,586.18
			c8.21-15.896,25.767-23.492,39.215-16.967c13.448,6.525,17.694,24.702,9.484,40.598c-8.21,15.896-25.767,23.493-39.215,16.967
			C672.73,620.252,668.484,602.076,676.694,586.18z"/>
		<path fill="#121214" stroke="#FFFFFF" stroke-width="3" stroke-miterlimit="10" d="M799.467,586.18
			c8.21-15.896,25.767-23.492,39.215-16.967c13.448,6.525,17.694,24.702,9.484,40.598c-8.21,15.896-25.767,23.493-39.215,16.967
			C795.503,620.252,791.257,602.076,799.467,586.18z"/>
		<path fill="#121214" stroke="#FFFFFF" stroke-width="3" stroke-miterlimit="10" d="M1484.724,586.18
			c-8.21-15.896-25.767-23.492-39.215-16.967c-13.448,6.525-17.694,24.702-9.484,40.598c8.21,15.896,25.767,23.493,39.215,16.967
			C1488.687,620.252,1492.934,602.076,1484.724,586.18z"/>
		<path fill="#121214" stroke="#FFFFFF" stroke-width="3" stroke-miterlimit="10" d="M1364.007,586.18
			c-8.21-15.896-25.767-23.492-39.215-16.967c-13.448,6.525-17.694,24.702-9.484,40.598c8.21,15.896,25.767,23.493,39.215,16.967
			C1367.971,620.252,1372.217,602.076,1364.007,586.18z"/>
		<path fill="#121214" stroke="#FFFFFF" stroke-width="3" stroke-miterlimit="10" d="M1243.307,586.18
			c-8.21-15.896-25.767-23.492-39.215-16.967c-13.448,6.525-17.694,24.702-9.484,40.598c8.21,15.896,25.767,23.493,39.215,16.967
			C1247.271,620.252,1251.517,602.076,1243.307,586.18z"/>
		<path fill="#121214" stroke="#FFFFFF" stroke-width="3" stroke-miterlimit="10" d="M1120.534,586.18
			c-8.21-15.896-25.767-23.492-39.215-16.967c-13.448,6.525-17.694,24.702-9.484,40.598c8.21,15.896,25.767,23.493,39.215,16.967
			S1128.744,602.076,1120.534,586.18z"/>
		<path fill="#121214" stroke="#FFFFFF" stroke-width="3" stroke-miterlimit="10" d="M933.286,598.184
			c-0.131-17.776,11.953-32.271,26.992-32.376c15.039-0.105,27.336,14.221,27.468,31.997c0.132,17.776-11.953,32.271-26.992,32.376
			C945.715,630.286,933.418,615.961,933.286,598.184z"/>
	</g>
	<g>
		<path fill="#121214" stroke="#FFFFFF" stroke-width="3" stroke-miterlimit="10" d="M469.53,669.455
			c5.504-17.036,22.243-27.473,37.388-23.31c15.145,4.163,22.961,21.348,17.457,38.385c-5.504,17.036-22.243,27.473-37.388,23.31
			C471.842,703.677,464.026,686.491,469.53,669.455z"/>
		<path fill="#121214" stroke="#FFFFFF" stroke-width="3" stroke-miterlimit="10" d="M597.457,669.455
			c5.504-17.036,22.243-27.473,37.388-23.31s22.961,21.348,17.457,38.385c-5.504,17.036-22.243,27.473-37.388,23.31
			C599.769,703.677,591.953,686.491,597.457,669.455z"/>
		<path fill="#121214" stroke="#FFFFFF" stroke-width="3" stroke-miterlimit="10" d="M725.383,669.455
			c5.504-17.036,22.243-27.473,37.388-23.31s22.961,21.348,17.457,38.385c-5.504,17.036-22.243,27.473-37.388,23.31
			C727.696,703.677,719.88,686.491,725.383,669.455z"/>
		<path fill="#121214" stroke="#FFFFFF" stroke-width="3" stroke-miterlimit="10" d="M864.151,669.455
			c5.504-17.036,22.243-27.473,37.388-23.31s22.961,21.348,17.457,38.385c-5.504,17.036-22.243,27.473-37.388,23.31
			C866.464,703.677,858.648,686.491,864.151,669.455z"/>
		<path fill="#121214" stroke="#FFFFFF" stroke-width="3" stroke-miterlimit="10" d="M1453.47,669.455
			c-5.504-17.036-22.243-27.473-37.388-23.31c-15.145,4.163-22.961,21.348-17.457,38.385c5.504,17.036,22.243,27.473,37.388,23.31
			C1451.158,703.677,1458.974,686.491,1453.47,669.455z"/>
		<path fill="#121214" stroke="#FFFFFF" stroke-width="3" stroke-miterlimit="10" d="M1325.543,669.455
			c-5.504-17.036-22.243-27.473-37.388-23.31c-15.145,4.163-22.961,21.348-17.457,38.385c5.504,17.036,22.243,27.473,37.388,23.31
			C1323.231,703.677,1331.047,686.491,1325.543,669.455z"/>
		<path fill="#121214" stroke="#FFFFFF" stroke-width="3" stroke-miterlimit="10" d="M1197.617,669.455
			c-5.504-17.036-22.243-27.473-37.388-23.31s-22.961,21.348-17.457,38.385c5.504,17.036,22.243,27.473,37.388,23.31
			C1195.304,703.677,1203.12,686.491,1197.617,669.455z"/>
		<path fill="#121214" stroke="#FFFFFF" stroke-width="3" stroke-miterlimit="10" d="M1058.849,669.455
			c-5.504-17.036-22.243-27.473-37.388-23.31s-22.961,21.348-17.457,38.385c5.504,17.036,22.243,27.473,37.388,23.31
			C1056.536,703.677,1064.352,686.491,1058.849,669.455z"/>
	</g>
	<g>
		<path fill="#121214" stroke="#FFFFFF" stroke-width="3" stroke-miterlimit="10" d="M372.285,745.328
			c6.54-16.79,24.338-26.518,39.753-21.728c15.415,4.79,22.609,22.283,16.069,39.073S403.77,789.19,388.355,784.4
			C372.94,779.611,365.745,762.117,372.285,745.328z"/>
		<path fill="#121214" stroke="#FFFFFF" stroke-width="3" stroke-miterlimit="10" d="M511.618,745.328
			c6.54-16.79,24.338-26.518,39.753-21.728s22.609,22.283,16.069,39.073s-24.338,26.518-39.753,21.728
			C512.272,779.611,505.078,762.117,511.618,745.328z"/>
		<path fill="#121214" stroke="#FFFFFF" stroke-width="3" stroke-miterlimit="10" d="M649.969,745.328
			c6.54-16.79,24.338-26.518,39.753-21.728s22.609,22.283,16.069,39.073s-24.338,26.518-39.753,21.728
			C650.623,779.611,643.429,762.117,649.969,745.328z"/>
		<path fill="#121214" stroke="#FFFFFF" stroke-width="3" stroke-miterlimit="10" d="M783.691,745.328
			c6.54-16.79,24.338-26.518,39.753-21.728c15.415,4.79,22.609,22.283,16.069,39.073c-6.54,16.79-24.338,26.518-39.753,21.728
			C784.345,779.611,777.151,762.117,783.691,745.328z"/>
		<path fill="#121214" stroke="#FFFFFF" stroke-width="3" stroke-miterlimit="10" d="M1547.145,745.328
			c-6.54-16.79-24.338-26.518-39.753-21.728s-22.609,22.283-16.069,39.073c6.54,16.79,24.338,26.518,39.753,21.728
			C1546.49,779.611,1553.685,762.117,1547.145,745.328z"/>
		<path fill="#121214" stroke="#FFFFFF" stroke-width="3" stroke-miterlimit="10" d="M1407.813,745.328
			c-6.54-16.79-24.338-26.518-39.753-21.728s-22.609,22.283-16.069,39.073s24.338,26.518,39.753,21.728
			S1414.353,762.117,1407.813,745.328z"/>
		<path fill="#121214" stroke="#FFFFFF" stroke-width="3" stroke-miterlimit="10" d="M1269.462,745.328
			c-6.54-16.79-24.338-26.518-39.753-21.728s-22.609,22.283-16.069,39.073c6.54,16.79,24.338,26.518,39.753,21.728
			C1268.807,779.611,1276.002,762.117,1269.462,745.328z"/>
		<path fill="#121214" stroke="#FFFFFF" stroke-width="3" stroke-miterlimit="10" d="M1135.74,745.328
			c-6.54-16.79-24.338-26.518-39.753-21.728s-22.609,22.283-16.069,39.073c6.54,16.79,24.338,26.518,39.753,21.728
			C1135.085,779.611,1142.28,762.117,1135.74,745.328z"/>
		<path fill="#121214" stroke="#FFFFFF" stroke-width="3" stroke-miterlimit="10" d="M931.045,754.4
			c-0.301-17.775,12.684-32.363,29.003-32.584c16.319-0.221,29.793,14.009,30.094,31.784c0.301,17.775-12.684,32.363-29.003,32.584
			C944.82,786.405,931.347,772.174,931.045,754.4z"/>
	</g>
</g>
<g>
	<g>
		<path fill="#7A8485" d="M466.772,525.032l-23.772,15.455h33.114C477.547,535.842,475.053,525.361,466.772,525.032z"/>
		<path fill="#596B6B" d="M442.999,540.487l-9.81,17.747c22.651,1.276,40.244-7.926,42.873-17.747H442.999z"/>
		<path fill="#7A8485" d="M552.977,468.988l-24.832,16.143c25.657,0.51,48.309-7.003,51.314-16.143H552.977z"/>
	</g>
	<g>
		<ellipse fill="#241E1E" cx="320.846" cy="803.23" rx="1.075" ry="1.028"/>
		<g>
			<g>
				<g>
					<path fill="#596B6B" d="M312.674,776.261L298.999,801h29.7C328.699,792.434,317.909,776.261,312.674,776.261z"/>
					<path fill="#3F4343" d="M298.999,801v26.1c16.416,0,29.7-15.6,29.7-26.1H298.999z"/>
				</g>
				<g>
					<path fill="#596B6B" d="M1605.325,776.261L1618.999,801h-29.7C1589.299,792.434,1600.09,776.261,1605.325,776.261z"/>
					<path fill="#3F4343" d="M1618.999,801v26.1c-16.416,0-29.7-15.6-29.7-26.1H1618.999z"/>
				</g>
			</g>
			<g>
				<g>
					<ellipse fill="#241E1E" cx="314.012" cy="779.814" rx="1.289" ry="1.233"/>
					<ellipse fill="#241E1E" cx="317.827" cy="783.55" rx="1.289" ry="1.233"/>
					<ellipse fill="#241E1E" cx="321.046" cy="788.041" rx="1.289" ry="1.233"/>
					<ellipse fill="#241E1E" cx="323.427" cy="792.652" rx="1.289" ry="1.233"/>
					<ellipse fill="#241E1E" cx="325.215" cy="798.176" rx="1.289" ry="1.233"/>
					<ellipse fill="#131719" cx="325.215" cy="803.676" rx="1.289" ry="1.233"/>
					<ellipse fill="#131719" cx="322.965" cy="809.026" rx="1.289" ry="1.233"/>
					<ellipse fill="#131719" cx="319.615" cy="813.476" rx="1.289" ry="1.233"/>
					<ellipse fill="#131719" cx="315.139" cy="817.726" rx="1.289" ry="1.233"/>
					<ellipse fill="#131719" cx="309.789" cy="820.926" rx="1.289" ry="1.233"/>
					<ellipse fill="#131719" cx="302.989" cy="822.976" rx="1.289" ry="1.233"/>
					<g>
						<path fill="#FFFFFF" d="M314.458,779.005c0,0-0.151-0.013-0.336,0.031c-0.189,0.039-0.419,0.15-0.58,0.339
							c-0.174,0.176-0.274,0.415-0.311,0.605c-0.042,0.191-0.03,0.337-0.03,0.337c0.008-0.001-0.083-0.12-0.105-0.344
							c-0.028-0.223,0.066-0.53,0.27-0.761c0.213-0.224,0.522-0.336,0.747-0.311c0.112,0.004,0.204,0.04,0.257,0.064
							C314.426,778.99,314.458,779.005,314.458,779.005z"/>
					</g>
					<g>
						<path fill="#FFFFFF" d="M318.356,782.828c0,0-0.151-0.013-0.336,0.031c-0.189,0.039-0.419,0.15-0.58,0.339
							c-0.174,0.176-0.274,0.415-0.311,0.605c-0.042,0.191-0.03,0.337-0.03,0.337c0.008-0.001-0.083-0.12-0.105-0.344
							c-0.028-0.223,0.066-0.53,0.27-0.761c0.213-0.224,0.522-0.336,0.747-0.311c0.112,0.004,0.204,0.04,0.257,0.064
							C318.323,782.814,318.356,782.828,318.356,782.828z"/>
					</g>
					<g>
						<path fill="#FFFFFF" d="M321.51,787.222c0,0-0.151-0.013-0.336,0.031c-0.189,0.039-0.419,0.15-0.58,0.339
							c-0.174,0.176-0.274,0.415-0.311,0.605c-0.042,0.191-0.03,0.337-0.03,0.337c0.008-0.001-0.083-0.12-0.105-0.344
							c-0.028-0.223,0.066-0.53,0.27-0.761c0.213-0.224,0.522-0.336,0.747-0.311c0.112,0.004,0.204,0.04,0.257,0.064
							C321.478,787.208,321.51,787.222,321.51,787.222z"/>
					</g>
					<g>
						<path fill="#FFFFFF" d="M323.926,791.78c0,0-0.151-0.013-0.336,0.031c-0.189,0.039-0.419,0.15-0.58,0.339
							c-0.174,0.177-0.274,0.415-0.311,0.605c-0.042,0.191-0.03,0.337-0.03,0.337c0.008-0.001-0.083-0.12-0.105-0.344
							c-0.028-0.223,0.066-0.53,0.27-0.761c0.213-0.224,0.522-0.336,0.747-0.311c0.112,0.004,0.204,0.04,0.257,0.064
							C323.893,791.766,323.926,791.78,323.926,791.78z"/>
					</g>
					<g>
						<path fill="#FFFFFF" d="M325.633,797.34c0,0-0.151-0.013-0.336,0.031c-0.189,0.039-0.419,0.15-0.58,0.339
							c-0.174,0.176-0.274,0.415-0.311,0.605c-0.042,0.191-0.03,0.337-0.03,0.337c0.008-0.001-0.083-0.12-0.105-0.344
							c-0.028-0.223,0.066-0.53,0.27-0.761c0.213-0.224,0.522-0.336,0.747-0.311c0.112,0.004,0.204,0.04,0.257,0.064
							C325.601,797.326,325.633,797.34,325.633,797.34z"/>
					</g>
					<g>
						<path fill="#FFFFFF" d="M325.633,802.883c0,0-0.151-0.013-0.336,0.031c-0.189,0.039-0.419,0.15-0.58,0.339
							c-0.174,0.176-0.274,0.415-0.311,0.605c-0.042,0.191-0.03,0.337-0.03,0.337c0.008-0.001-0.083-0.12-0.105-0.344
							c-0.028-0.223,0.066-0.53,0.27-0.761c0.213-0.224,0.522-0.336,0.747-0.311c0.112,0.004,0.204,0.04,0.257,0.064
							C325.601,802.869,325.633,802.883,325.633,802.883z"/>
					</g>
					<g>
						<path fill="#FFFFFF" d="M323.366,808.239c0,0-0.151-0.013-0.336,0.031c-0.189,0.039-0.419,0.15-0.58,0.339
							c-0.174,0.176-0.274,0.415-0.311,0.605c-0.042,0.191-0.03,0.337-0.03,0.337c0.008-0.001-0.083-0.12-0.105-0.344
							c-0.028-0.223,0.066-0.53,0.27-0.761c0.213-0.224,0.522-0.336,0.747-0.311c0.112,0.004,0.204,0.04,0.257,0.064
							C323.334,808.225,323.366,808.239,323.366,808.239z"/>
					</g>
					<g>
						<path fill="#FFFFFF" d="M320.048,812.738c0,0-0.151-0.013-0.336,0.031c-0.189,0.039-0.419,0.15-0.58,0.339
							c-0.174,0.176-0.274,0.415-0.311,0.605c-0.042,0.191-0.03,0.337-0.03,0.337c0.008-0.001-0.083-0.12-0.105-0.344
							c-0.028-0.223,0.066-0.53,0.27-0.761c0.213-0.224,0.522-0.336,0.747-0.311c0.112,0.004,0.204,0.04,0.257,0.064
							C320.016,812.723,320.048,812.738,320.048,812.738z"/>
					</g>
					<g>
						<path fill="#FFFFFF" d="M315.569,816.936c0,0-0.151-0.013-0.336,0.031c-0.189,0.039-0.419,0.15-0.58,0.339
							c-0.174,0.177-0.274,0.415-0.311,0.605c-0.042,0.191-0.03,0.337-0.03,0.337c0.008-0.001-0.083-0.12-0.105-0.344
							c-0.028-0.223,0.066-0.53,0.27-0.761c0.213-0.224,0.522-0.336,0.747-0.311c0.112,0.004,0.204,0.04,0.257,0.064
							C315.537,816.922,315.569,816.936,315.569,816.936z"/>
					</g>
					<g>
						<path fill="#FFFFFF" d="M310.14,820.124c0,0-0.151-0.013-0.336,0.031c-0.189,0.039-0.419,0.15-0.58,0.339
							c-0.174,0.176-0.274,0.415-0.311,0.605c-0.042,0.191-0.03,0.337-0.03,0.337c0.008-0.001-0.083-0.12-0.105-0.344
							c-0.028-0.223,0.066-0.53,0.27-0.761c0.213-0.224,0.522-0.336,0.747-0.311c0.112,0.004,0.204,0.04,0.257,0.064
							C310.107,820.11,310.14,820.124,310.14,820.124z"/>
					</g>
					<g>
						<path fill="#FFFFFF" d="M303.416,822.2c0,0-0.151-0.013-0.336,0.031c-0.189,0.039-0.419,0.15-0.58,0.339
							c-0.174,0.176-0.274,0.415-0.311,0.605c-0.042,0.191-0.03,0.337-0.03,0.337c0.008-0.001-0.083-0.12-0.105-0.344
							c-0.028-0.223,0.066-0.53,0.27-0.761c0.213-0.224,0.522-0.336,0.747-0.311c0.112,0.004,0.204,0.04,0.257,0.064
							C303.384,822.186,303.416,822.2,303.416,822.2z"/>
					</g>
					<ellipse fill="#131719" cx="467.656" cy="526.804" rx="1.075" ry="1.028"/>
					<g>
						<path fill="#FFFFFF" d="M468.012,526.157c0,0-0.126-0.011-0.28,0.026c-0.157,0.033-0.349,0.125-0.483,0.283
							c-0.145,0.147-0.228,0.346-0.259,0.504c-0.035,0.159-0.025,0.281-0.025,0.281c0.007-0.001-0.069-0.1-0.088-0.287
							c-0.023-0.186,0.055-0.442,0.225-0.634c0.177-0.186,0.435-0.28,0.623-0.259C467.917,526.089,468.009,526.164,468.012,526.157z
							"/>
					</g>
					<ellipse fill="#131719" cx="575.999" cy="471.066" rx="1.075" ry="1.028"/>
					<g>
						<path fill="#FFFFFF" d="M576.355,470.419c0,0-0.126-0.011-0.28,0.026c-0.157,0.033-0.349,0.125-0.483,0.283
							c-0.145,0.147-0.228,0.346-0.259,0.504c-0.035,0.159-0.025,0.281-0.025,0.281c0.007-0.001-0.069-0.1-0.088-0.287
							c-0.023-0.186,0.055-0.442,0.225-0.634c0.177-0.186,0.435-0.28,0.623-0.259C576.259,470.351,576.352,470.426,576.355,470.419z
							"/>
					</g>
					<ellipse fill="#131719" cx="571.187" cy="474.566" rx="1.075" ry="1.028"/>
					<g>
						<path fill="#FFFFFF" d="M571.543,473.919c0,0-0.126-0.011-0.28,0.026c-0.157,0.033-0.349,0.125-0.483,0.283
							c-0.145,0.147-0.228,0.346-0.259,0.504c-0.035,0.159-0.025,0.281-0.025,0.281c0.007-0.001-0.069-0.1-0.088-0.287
							c-0.023-0.186,0.055-0.442,0.225-0.634c0.177-0.186,0.435-0.28,0.623-0.259C571.447,473.851,571.539,473.926,571.543,473.919z
							"/>
					</g>
					<ellipse fill="#131719" cx="565.586" cy="477.072" rx="1.075" ry="1.028"/>
					<g>
						<path fill="#FFFFFF" d="M565.942,476.425c0,0-0.126-0.011-0.28,0.026c-0.157,0.033-0.349,0.125-0.483,0.283
							c-0.145,0.147-0.228,0.346-0.259,0.504c-0.035,0.159-0.025,0.281-0.025,0.281c0.007-0.001-0.069-0.1-0.088-0.287
							c-0.023-0.186,0.055-0.442,0.225-0.634c0.177-0.186,0.435-0.28,0.623-0.259C565.846,476.357,565.938,476.432,565.942,476.425z
							"/>
					</g>
					<ellipse fill="#131719" cx="558.624" cy="479.509" rx="1.075" ry="1.028"/>
					<g>
						<path fill="#FFFFFF" d="M558.98,478.863c0,0-0.126-0.011-0.28,0.026c-0.157,0.033-0.349,0.125-0.483,0.283
							c-0.145,0.147-0.228,0.346-0.259,0.504c-0.035,0.159-0.025,0.281-0.025,0.281c0.007-0.001-0.069-0.1-0.088-0.287
							c-0.023-0.186,0.055-0.442,0.225-0.634c0.177-0.186,0.435-0.28,0.623-0.259C558.884,478.795,558.977,478.87,558.98,478.863z"
							/>
					</g>
					<ellipse fill="#131719" cx="551.249" cy="480.984" rx="1.075" ry="1.028"/>
					<g>
						<path fill="#FFFFFF" d="M551.605,480.337c0,0-0.126-0.011-0.28,0.026c-0.157,0.033-0.349,0.125-0.483,0.283
							c-0.145,0.147-0.228,0.346-0.259,0.504c-0.035,0.159-0.025,0.281-0.025,0.281c0.007-0.001-0.069-0.1-0.088-0.287
							c-0.023-0.186,0.055-0.442,0.225-0.634c0.177-0.186,0.435-0.28,0.623-0.259C551.509,480.269,551.602,480.344,551.605,480.337z
							"/>
					</g>
					<ellipse fill="#131719" cx="543.889" cy="482.225" rx="1.075" ry="1.028"/>
					<g>
						<path fill="#FFFFFF" d="M544.245,481.579c0,0-0.126-0.011-0.28,0.026c-0.157,0.033-0.349,0.125-0.483,0.283
							c-0.145,0.147-0.228,0.346-0.259,0.504c-0.035,0.159-0.025,0.281-0.025,0.281c0.007-0.001-0.069-0.1-0.088-0.287
							c-0.023-0.186,0.055-0.442,0.225-0.634c0.177-0.186,0.435-0.28,0.623-0.259C544.149,481.511,544.241,481.586,544.245,481.579z
							"/>
					</g>
					<ellipse fill="#131719" cx="535.063" cy="482.906" rx="1.075" ry="1.028"/>
					<g>
						<path fill="#FFFFFF" d="M535.418,482.259c0,0-0.126-0.011-0.28,0.026c-0.157,0.033-0.349,0.125-0.483,0.283
							c-0.145,0.147-0.228,0.346-0.259,0.504c-0.035,0.159-0.025,0.281-0.025,0.281c0.007-0.001-0.069-0.1-0.088-0.287
							c-0.023-0.186,0.055-0.442,0.225-0.634c0.177-0.186,0.435-0.28,0.623-0.259C535.323,482.191,535.415,482.266,535.418,482.259z
							"/>
					</g>
					<path fill="#7A8485" d="M1364.999,468.988l23.874,16.168c-25.657,0.51-47.351-7.028-50.356-16.168H1364.999z"/>
					<ellipse fill="#131719" cx="1341.977" cy="471.066" rx="1.075" ry="1.028"/>
					<g>
						<path fill="#FFFFFF" d="M1341.621,470.419c0.004,0.007,0.096-0.068,0.287-0.086c0.188-0.021,0.446,0.073,0.623,0.259
							c0.17,0.192,0.248,0.448,0.225,0.634c-0.019,0.186-0.095,0.286-0.088,0.287c0,0,0.01-0.121-0.025-0.281
							c-0.031-0.158-0.114-0.357-0.259-0.504c-0.134-0.157-0.326-0.25-0.483-0.283
							C1341.747,470.408,1341.621,470.419,1341.621,470.419z"/>
					</g>
					<ellipse fill="#131719" cx="1346.79" cy="474.566" rx="1.075" ry="1.028"/>
					<g>
						<path fill="#FFFFFF" d="M1346.434,473.919c0.004,0.007,0.096-0.068,0.287-0.086c0.188-0.021,0.446,0.073,0.623,0.259
							c0.17,0.192,0.248,0.448,0.225,0.634c-0.019,0.186-0.095,0.286-0.088,0.287c0,0,0.01-0.121-0.025-0.281
							c-0.031-0.158-0.114-0.357-0.259-0.504c-0.134-0.157-0.326-0.25-0.483-0.283
							C1346.56,473.908,1346.434,473.919,1346.434,473.919z"/>
					</g>
					<ellipse fill="#131719" cx="1352.391" cy="477.072" rx="1.075" ry="1.028"/>
					<g>
						<path fill="#FFFFFF" d="M1352.035,476.425c0.004,0.007,0.096-0.068,0.287-0.086c0.188-0.021,0.446,0.073,0.623,0.259
							c0.17,0.192,0.248,0.448,0.225,0.634c-0.019,0.186-0.095,0.286-0.088,0.287c0,0,0.01-0.121-0.025-0.281
							c-0.031-0.158-0.114-0.357-0.259-0.504c-0.134-0.157-0.326-0.25-0.483-0.283
							C1352.161,476.414,1352.035,476.425,1352.035,476.425z"/>
					</g>
					<ellipse fill="#131719" cx="1359.352" cy="479.509" rx="1.075" ry="1.028"/>
					<g>
						<path fill="#FFFFFF" d="M1358.996,478.863c0.004,0.007,0.096-0.068,0.287-0.086c0.188-0.021,0.446,0.073,0.623,0.259
							c0.17,0.192,0.248,0.448,0.225,0.634c-0.019,0.186-0.095,0.286-0.088,0.287c0,0,0.01-0.121-0.025-0.281
							c-0.031-0.158-0.114-0.357-0.259-0.504c-0.134-0.157-0.326-0.25-0.483-0.283
							C1359.122,478.851,1358.996,478.863,1358.996,478.863z"/>
					</g>
					<ellipse fill="#131719" cx="1366.727" cy="480.984" rx="1.075" ry="1.028"/>
					<g>
						<path fill="#FFFFFF" d="M1366.371,480.337c0.004,0.007,0.096-0.068,0.287-0.086c0.188-0.021,0.446,0.073,0.623,0.259
							c0.17,0.192,0.248,0.448,0.225,0.634c-0.019,0.186-0.095,0.286-0.088,0.287c0,0,0.01-0.121-0.025-0.281
							c-0.031-0.158-0.114-0.357-0.259-0.504c-0.134-0.157-0.326-0.25-0.483-0.283
							C1366.497,480.326,1366.371,480.337,1366.371,480.337z"/>
					</g>
					<ellipse fill="#131719" cx="1374.088" cy="482.225" rx="1.075" ry="1.028"/>
					<g>
						<path fill="#FFFFFF" d="M1373.732,481.579c0.004,0.007,0.096-0.068,0.287-0.086c0.188-0.021,0.446,0.073,0.623,0.259
							c0.17,0.192,0.248,0.448,0.225,0.634c-0.019,0.186-0.095,0.286-0.088,0.287c0,0,0.01-0.121-0.025-0.281
							c-0.031-0.158-0.114-0.357-0.259-0.504c-0.134-0.157-0.326-0.25-0.483-0.283
							C1373.858,481.567,1373.732,481.579,1373.732,481.579z"/>
					</g>
					<ellipse fill="#131719" cx="1382.914" cy="482.906" rx="1.075" ry="1.028"/>
					<g>
						<path fill="#FFFFFF" d="M1382.558,482.259c0.004,0.007,0.096-0.068,0.287-0.086c0.188-0.021,0.446,0.073,0.623,0.259
							c0.17,0.192,0.248,0.448,0.225,0.634c-0.019,0.186-0.095,0.286-0.088,0.287c0,0,0.01-0.121-0.025-0.281
							c-0.031-0.158-0.114-0.357-0.259-0.504c-0.134-0.157-0.326-0.25-0.483-0.283
							C1382.684,482.248,1382.558,482.259,1382.558,482.259z"/>
					</g>
					<ellipse fill="#131719" cx="470.948" cy="529.054" rx="1.075" ry="1.028"/>
					<g>
						<path fill="#FFFFFF" d="M471.304,528.407c0,0-0.126-0.011-0.28,0.026c-0.157,0.033-0.349,0.125-0.483,0.283
							c-0.145,0.147-0.228,0.346-0.259,0.504c-0.035,0.159-0.025,0.281-0.025,0.281c0.007-0.001-0.069-0.1-0.088-0.287
							c-0.023-0.186,0.055-0.442,0.225-0.634c0.177-0.186,0.435-0.28,0.623-0.259C471.208,528.339,471.3,528.414,471.304,528.407z"
							/>
					</g>
					<ellipse fill="#131719" cx="472.906" cy="532.179" rx="1.075" ry="1.028"/>
					<g>
						<path fill="#FFFFFF" d="M473.262,531.532c0,0-0.126-0.011-0.28,0.026c-0.157,0.033-0.349,0.125-0.483,0.283
							c-0.145,0.147-0.228,0.346-0.259,0.504c-0.035,0.159-0.025,0.281-0.025,0.281c0.007-0.001-0.069-0.1-0.088-0.287
							c-0.023-0.186,0.055-0.442,0.225-0.634c0.177-0.186,0.435-0.28,0.623-0.259C473.167,531.464,473.259,531.539,473.262,531.532z
							"/>
					</g>
					<ellipse fill="#131719" cx="474.337" cy="535.012" rx="1.075" ry="1.028"/>
					<g>
						<path fill="#FFFFFF" d="M474.693,534.365c0,0-0.126-0.011-0.28,0.026c-0.157,0.033-0.349,0.125-0.483,0.283
							c-0.145,0.147-0.228,0.346-0.259,0.504c-0.035,0.159-0.025,0.281-0.025,0.281c0.007-0.001-0.069-0.1-0.088-0.287
							c-0.023-0.186,0.055-0.442,0.225-0.634c0.177-0.186,0.435-0.28,0.623-0.259C474.597,534.297,474.689,534.372,474.693,534.365z
							"/>
					</g>
					<ellipse fill="#131719" cx="474.337" cy="538.72" rx="1.075" ry="1.028"/>
					<g>
						<path fill="#FFFFFF" d="M474.693,538.074c0,0-0.126-0.011-0.28,0.026c-0.157,0.033-0.349,0.125-0.483,0.283
							c-0.145,0.147-0.228,0.346-0.259,0.504c-0.035,0.159-0.025,0.281-0.025,0.281c0.007-0.001-0.069-0.1-0.088-0.287
							c-0.023-0.186,0.055-0.442,0.225-0.634c0.177-0.186,0.435-0.28,0.623-0.259C474.597,538.006,474.689,538.081,474.693,538.074z
							"/>
					</g>
					<ellipse fill="#131719" cx="472.906" cy="542.637" rx="1.075" ry="1.028"/>
					<g>
						<path fill="#FFFFFF" d="M473.262,541.99c0,0-0.126-0.011-0.28,0.026c-0.157,0.033-0.349,0.125-0.483,0.283
							c-0.145,0.147-0.228,0.346-0.259,0.504c-0.035,0.159-0.025,0.281-0.025,0.281c0.007-0.001-0.069-0.1-0.088-0.287
							c-0.023-0.186,0.055-0.442,0.225-0.634c0.177-0.186,0.435-0.28,0.623-0.259C473.167,541.922,473.259,541.997,473.262,541.99z"
							/>
					</g>
					<ellipse fill="#131719" cx="470.198" cy="546.012" rx="1.075" ry="1.028"/>
					<g>
						<path fill="#FFFFFF" d="M470.554,545.365c0,0-0.126-0.011-0.28,0.026c-0.157,0.033-0.349,0.125-0.483,0.283
							c-0.145,0.147-0.228,0.346-0.259,0.504c-0.035,0.159-0.025,0.281-0.025,0.281c0.007-0.001-0.069-0.1-0.088-0.287
							c-0.023-0.186,0.055-0.442,0.225-0.634c0.177-0.186,0.435-0.28,0.623-0.259C470.458,545.297,470.55,545.372,470.554,545.365z"
							/>
					</g>
					<ellipse fill="#131719" cx="466.448" cy="549.179" rx="1.075" ry="1.028"/>
					<g>
						<path fill="#FFFFFF" d="M466.804,548.532c0,0-0.126-0.011-0.28,0.026c-0.157,0.033-0.349,0.125-0.483,0.283
							c-0.145,0.147-0.228,0.346-0.259,0.504c-0.035,0.159-0.025,0.281-0.025,0.281c0.007-0.001-0.069-0.1-0.088-0.287
							c-0.023-0.186,0.055-0.442,0.225-0.634c0.177-0.186,0.435-0.28,0.623-0.259C466.708,548.464,466.8,548.539,466.804,548.532z"
							/>
					</g>
					<ellipse fill="#131719" cx="461.656" cy="551.804" rx="1.075" ry="1.028"/>
					<g>
						<path fill="#FFFFFF" d="M462.012,551.157c0,0-0.126-0.011-0.28,0.026c-0.157,0.033-0.349,0.125-0.483,0.283
							c-0.145,0.147-0.228,0.346-0.259,0.504c-0.035,0.159-0.025,0.281-0.025,0.281c0.007-0.001-0.069-0.1-0.088-0.287
							c-0.023-0.186,0.055-0.442,0.225-0.634c0.177-0.186,0.435-0.28,0.623-0.259C461.917,551.089,462.009,551.164,462.012,551.157z
							"/>
					</g>
					<ellipse fill="#131719" cx="456.823" cy="553.554" rx="1.075" ry="1.028"/>
					<g>
						<path fill="#FFFFFF" d="M457.179,552.907c0,0-0.126-0.011-0.28,0.026c-0.157,0.033-0.349,0.125-0.483,0.283
							c-0.145,0.147-0.228,0.346-0.259,0.504c-0.035,0.159-0.025,0.281-0.025,0.281c0.007-0.001-0.069-0.1-0.088-0.287
							c-0.023-0.186,0.055-0.442,0.225-0.634c0.177-0.186,0.435-0.28,0.623-0.259C457.083,552.839,457.175,552.914,457.179,552.907z
							"/>
					</g>
					<ellipse fill="#131719" cx="451.365" cy="555.029" rx="1.075" ry="1.028"/>
					<g>
						<path fill="#FFFFFF" d="M451.721,554.382c0,0-0.126-0.011-0.28,0.026c-0.157,0.033-0.349,0.125-0.483,0.283
							c-0.145,0.147-0.228,0.346-0.259,0.504c-0.035,0.159-0.025,0.281-0.025,0.281c0.007-0.001-0.069-0.1-0.088-0.287
							c-0.023-0.186,0.055-0.442,0.225-0.634c0.177-0.186,0.435-0.28,0.623-0.259C451.625,554.314,451.717,554.389,451.721,554.382z
							"/>
					</g>
					<ellipse fill="#131719" cx="445.24" cy="556.056" rx="1.075" ry="1.028"/>
					<g>
						<path fill="#FFFFFF" d="M445.596,555.41c0,0-0.126-0.011-0.28,0.026c-0.157,0.033-0.349,0.125-0.483,0.283
							c-0.145,0.147-0.228,0.346-0.259,0.504c-0.035,0.159-0.025,0.281-0.025,0.281c0.007-0.001-0.069-0.1-0.088-0.287
							c-0.023-0.186,0.055-0.442,0.225-0.634c0.177-0.186,0.435-0.28,0.623-0.259C445.5,555.342,445.592,555.417,445.596,555.41z"/>
					</g>
					<ellipse fill="#131719" cx="438.198" cy="556.503" rx="1.075" ry="1.028"/>
					<g>
						<path fill="#FFFFFF" d="M438.554,555.857c0,0-0.126-0.011-0.28,0.026c-0.157,0.033-0.349,0.125-0.483,0.283
							c-0.145,0.147-0.228,0.346-0.259,0.504c-0.035,0.159-0.025,0.281-0.025,0.281c0.007-0.001-0.069-0.1-0.088-0.287
							c-0.023-0.186,0.055-0.442,0.225-0.634c0.177-0.186,0.435-0.28,0.623-0.259C438.458,555.789,438.55,555.864,438.554,555.857z"
							/>
					</g>
					<path fill="#7A8485" d="M1450.527,525.231l24.472,15.256h-33.114C1440.452,535.842,1443.847,525.468,1450.527,525.231z"/>
					<path fill="#596B6B" d="M1474.999,540.487l9.81,17.747c-22.651,1.276-40.244-7.926-42.873-17.747H1474.999z"/>
					<ellipse fill="#131719" cx="1450.342" cy="526.804" rx="1.075" ry="1.028"/>
					<g>
						<path fill="#FFFFFF" d="M1449.986,526.157c0.004,0.007,0.096-0.068,0.287-0.086c0.188-0.021,0.446,0.073,0.623,0.259
							c0.17,0.192,0.248,0.448,0.225,0.634c-0.019,0.186-0.095,0.286-0.088,0.287c0,0,0.01-0.121-0.025-0.281
							c-0.031-0.159-0.114-0.357-0.259-0.504c-0.134-0.157-0.326-0.25-0.483-0.283
							C1450.113,526.146,1449.986,526.157,1449.986,526.157z"/>
					</g>
					<ellipse fill="#131719" cx="1447.051" cy="529.054" rx="1.075" ry="1.028"/>
					<g>
						<path fill="#FFFFFF" d="M1446.695,528.407c0.004,0.007,0.096-0.068,0.287-0.086c0.188-0.021,0.446,0.073,0.623,0.259
							c0.17,0.192,0.248,0.448,0.225,0.634c-0.019,0.186-0.095,0.286-0.088,0.287c0,0,0.01-0.121-0.025-0.281
							c-0.031-0.159-0.114-0.357-0.259-0.504c-0.134-0.157-0.326-0.25-0.483-0.283
							C1446.821,528.396,1446.695,528.407,1446.695,528.407z"/>
					</g>
					<ellipse fill="#131719" cx="1445.092" cy="532.179" rx="1.075" ry="1.028"/>
					<g>
						<path fill="#FFFFFF" d="M1444.736,531.532c0.004,0.007,0.096-0.068,0.287-0.086c0.188-0.021,0.446,0.073,0.623,0.259
							c0.17,0.192,0.248,0.448,0.225,0.634c-0.019,0.186-0.095,0.286-0.088,0.287c0,0,0.01-0.121-0.025-0.281
							c-0.031-0.159-0.114-0.357-0.259-0.504c-0.134-0.157-0.326-0.25-0.483-0.283
							C1444.863,531.521,1444.736,531.532,1444.736,531.532z"/>
					</g>
					<ellipse fill="#131719" cx="1443.662" cy="535.012" rx="1.075" ry="1.028"/>
					<g>
						<path fill="#FFFFFF" d="M1443.306,534.365c0.004,0.007,0.096-0.068,0.287-0.086c0.188-0.021,0.446,0.073,0.623,0.259
							c0.17,0.193,0.248,0.448,0.225,0.634c-0.019,0.186-0.095,0.286-0.088,0.287c0,0,0.011-0.121-0.025-0.281
							c-0.031-0.158-0.114-0.357-0.259-0.504c-0.134-0.157-0.326-0.25-0.483-0.283
							C1443.432,534.354,1443.306,534.365,1443.306,534.365z"/>
					</g>
					<ellipse fill="#131719" cx="1443.662" cy="538.72" rx="1.075" ry="1.028"/>
					<g>
						<path fill="#FFFFFF" d="M1443.306,538.074c0.004,0.007,0.096-0.068,0.287-0.086c0.188-0.021,0.446,0.073,0.623,0.259
							c0.17,0.192,0.248,0.448,0.225,0.634c-0.019,0.186-0.095,0.286-0.088,0.287c0,0,0.011-0.121-0.025-0.281
							c-0.031-0.158-0.114-0.357-0.259-0.504c-0.134-0.157-0.326-0.25-0.483-0.283
							C1443.432,538.063,1443.306,538.074,1443.306,538.074z"/>
					</g>
					<ellipse fill="#131719" cx="1445.092" cy="542.637" rx="1.075" ry="1.028"/>
					<g>
						<path fill="#FFFFFF" d="M1444.736,541.99c0.004,0.007,0.096-0.068,0.287-0.086c0.188-0.021,0.446,0.073,0.623,0.259
							c0.17,0.193,0.248,0.448,0.225,0.634c-0.019,0.186-0.095,0.286-0.088,0.287c0,0,0.01-0.121-0.025-0.281
							c-0.031-0.158-0.114-0.357-0.259-0.504c-0.134-0.157-0.326-0.25-0.483-0.283
							C1444.863,541.979,1444.736,541.99,1444.736,541.99z"/>
					</g>
					<ellipse fill="#131719" cx="1447.801" cy="546.012" rx="1.075" ry="1.028"/>
					<g>
						<path fill="#FFFFFF" d="M1447.445,545.365c0.004,0.007,0.096-0.068,0.287-0.086c0.188-0.021,0.446,0.073,0.623,0.259
							c0.17,0.193,0.248,0.448,0.225,0.634c-0.019,0.186-0.095,0.286-0.088,0.287c0,0,0.01-0.121-0.025-0.281
							c-0.031-0.158-0.114-0.357-0.259-0.504c-0.134-0.157-0.326-0.25-0.483-0.283
							C1447.571,545.354,1447.445,545.365,1447.445,545.365z"/>
					</g>
					<ellipse fill="#131719" cx="1451.551" cy="549.179" rx="1.075" ry="1.028"/>
					<g>
						<path fill="#FFFFFF" d="M1451.195,548.532c0.004,0.007,0.096-0.068,0.287-0.086c0.188-0.021,0.446,0.073,0.623,0.259
							c0.17,0.192,0.248,0.448,0.225,0.634c-0.019,0.186-0.095,0.286-0.088,0.287c0,0,0.01-0.121-0.025-0.281
							c-0.031-0.159-0.114-0.357-0.259-0.504c-0.134-0.157-0.326-0.25-0.483-0.283
							C1451.321,548.521,1451.195,548.532,1451.195,548.532z"/>
					</g>
					<ellipse fill="#131719" cx="1456.342" cy="551.804" rx="1.075" ry="1.028"/>
					<g>
						<path fill="#FFFFFF" d="M1455.986,551.157c0.004,0.007,0.096-0.068,0.287-0.086c0.188-0.021,0.446,0.073,0.623,0.259
							c0.17,0.192,0.248,0.448,0.225,0.634c-0.019,0.186-0.095,0.286-0.088,0.287c0,0,0.01-0.121-0.025-0.281
							c-0.031-0.159-0.114-0.357-0.259-0.504c-0.134-0.157-0.326-0.25-0.483-0.283
							C1456.113,551.146,1455.986,551.157,1455.986,551.157z"/>
					</g>
					<ellipse fill="#131719" cx="1461.176" cy="553.554" rx="1.075" ry="1.028"/>
					<g>
						<path fill="#FFFFFF" d="M1460.82,552.907c0.004,0.007,0.096-0.068,0.287-0.086c0.188-0.021,0.446,0.073,0.623,0.259
							c0.17,0.192,0.248,0.448,0.225,0.634c-0.019,0.186-0.095,0.286-0.088,0.287c0,0,0.01-0.121-0.025-0.281
							c-0.031-0.159-0.114-0.357-0.259-0.504c-0.134-0.157-0.326-0.25-0.483-0.283
							C1460.946,552.896,1460.82,552.907,1460.82,552.907z"/>
					</g>
					<ellipse fill="#131719" cx="1466.634" cy="555.029" rx="1.075" ry="1.028"/>
					<g>
						<path fill="#FFFFFF" d="M1466.278,554.382c0.004,0.007,0.096-0.068,0.287-0.086c0.188-0.021,0.446,0.073,0.623,0.259
							c0.17,0.193,0.248,0.448,0.225,0.634c-0.019,0.186-0.095,0.286-0.088,0.287c0,0,0.01-0.121-0.025-0.281
							c-0.031-0.158-0.114-0.357-0.259-0.504c-0.134-0.157-0.326-0.25-0.483-0.283
							C1466.404,554.371,1466.278,554.382,1466.278,554.382z"/>
					</g>
					<ellipse fill="#131719" cx="1472.759" cy="556.056" rx="1.075" ry="1.028"/>
					<g>
						<path fill="#FFFFFF" d="M1472.403,555.41c0.004,0.007,0.096-0.068,0.287-0.086c0.188-0.021,0.446,0.073,0.623,0.259
							c0.17,0.192,0.248,0.448,0.225,0.634c-0.019,0.186-0.095,0.286-0.088,0.287c0,0,0.01-0.121-0.025-0.281
							c-0.031-0.158-0.114-0.357-0.259-0.504c-0.134-0.157-0.326-0.25-0.483-0.283
							C1472.529,555.398,1472.403,555.41,1472.403,555.41z"/>
					</g>
					<ellipse fill="#131719" cx="1479.801" cy="556.503" rx="1.075" ry="1.028"/>
					<g>
						<path fill="#FFFFFF" d="M1479.445,555.857c0.004,0.007,0.096-0.068,0.287-0.086c0.188-0.021,0.446,0.073,0.623,0.259
							c0.17,0.192,0.248,0.448,0.225,0.634c-0.019,0.186-0.095,0.286-0.088,0.287c0,0,0.01-0.121-0.025-0.281
							c-0.031-0.159-0.114-0.357-0.259-0.504c-0.134-0.157-0.326-0.25-0.483-0.283
							C1479.571,555.845,1479.445,555.857,1479.445,555.857z"/>
					</g>
				</g>
				<g>
					<ellipse fill="#241E1E" cx="1604.24" cy="779.419" rx="1.289" ry="1.233"/>
					<ellipse fill="#241E1E" cx="1600.424" cy="783.155" rx="1.289" ry="1.233"/>
					<ellipse fill="#241E1E" cx="1597.205" cy="787.646" rx="1.289" ry="1.233"/>
					<ellipse fill="#241E1E" cx="1594.825" cy="792.256" rx="1.289" ry="1.233"/>
					<ellipse fill="#241E1E" cx="1593.036" cy="797.781" rx="1.289" ry="1.233"/>
					<ellipse fill="#131719" cx="1593.036" cy="803.281" rx="1.289" ry="1.233"/>
					<ellipse fill="#131719" cx="1595.286" cy="808.631" rx="1.289" ry="1.233"/>
					<ellipse fill="#131719" cx="1598.636" cy="813.081" rx="1.289" ry="1.233"/>
					<ellipse fill="#131719" cx="1603.113" cy="817.331" rx="1.289" ry="1.233"/>
					<ellipse fill="#131719" cx="1608.463" cy="820.531" rx="1.289" ry="1.233"/>
					<ellipse fill="#131719" cx="1615.263" cy="822.581" rx="1.289" ry="1.233"/>
					<g>
						<path fill="#FFFFFF" d="M1603.793,778.61c0,0,0.032-0.014,0.088-0.04c0.052-0.024,0.145-0.06,0.257-0.064
							c0.225-0.026,0.535,0.087,0.747,0.311c0.203,0.231,0.297,0.538,0.27,0.761c-0.023,0.224-0.114,0.343-0.105,0.344
							c0,0,0.013-0.146-0.03-0.337c-0.037-0.19-0.137-0.429-0.311-0.605c-0.161-0.189-0.391-0.3-0.58-0.339
							C1603.945,778.596,1603.793,778.61,1603.793,778.61z"/>
					</g>
					<g>
						<path fill="#FFFFFF" d="M1599.896,782.433c0,0,0.032-0.014,0.088-0.039c0.052-0.024,0.145-0.06,0.257-0.064
							c0.225-0.026,0.535,0.087,0.747,0.311c0.203,0.231,0.297,0.538,0.27,0.761c-0.023,0.224-0.114,0.343-0.105,0.344
							c0,0,0.013-0.146-0.03-0.337c-0.037-0.19-0.137-0.429-0.311-0.605c-0.161-0.189-0.391-0.3-0.58-0.339
							C1600.047,782.419,1599.896,782.433,1599.896,782.433z"/>
					</g>
					<g>
						<path fill="#FFFFFF" d="M1596.741,786.827c0,0,0.032-0.014,0.088-0.039c0.052-0.024,0.145-0.06,0.257-0.064
							c0.225-0.026,0.535,0.087,0.747,0.311c0.203,0.231,0.297,0.538,0.27,0.761c-0.023,0.224-0.114,0.343-0.105,0.344
							c0,0,0.013-0.146-0.03-0.337c-0.037-0.19-0.137-0.429-0.311-0.605c-0.161-0.189-0.391-0.3-0.58-0.339
							C1596.893,786.814,1596.741,786.827,1596.741,786.827z"/>
					</g>
					<g>
						<path fill="#FFFFFF" d="M1594.326,791.385c0,0,0.032-0.014,0.088-0.039c0.052-0.024,0.145-0.06,0.257-0.064
							c0.225-0.026,0.535,0.087,0.747,0.311c0.203,0.231,0.297,0.538,0.27,0.761c-0.023,0.224-0.114,0.343-0.105,0.344
							c0,0,0.013-0.146-0.03-0.337c-0.037-0.19-0.137-0.429-0.311-0.605c-0.161-0.189-0.391-0.3-0.58-0.339
							C1594.477,791.372,1594.326,791.385,1594.326,791.385z"/>
					</g>
					<g>
						<path fill="#FFFFFF" d="M1592.618,796.945c0,0,0.032-0.014,0.088-0.04c0.052-0.024,0.145-0.06,0.257-0.064
							c0.225-0.026,0.535,0.087,0.747,0.311c0.203,0.231,0.297,0.538,0.27,0.761c-0.023,0.224-0.114,0.343-0.105,0.344
							c0,0,0.013-0.146-0.03-0.337c-0.037-0.19-0.137-0.429-0.311-0.605c-0.161-0.189-0.391-0.3-0.58-0.339
							C1592.77,796.932,1592.618,796.945,1592.618,796.945z"/>
					</g>
					<g>
						<path fill="#FFFFFF" d="M1592.618,802.488c0,0,0.032-0.014,0.088-0.039c0.052-0.024,0.145-0.06,0.257-0.064
							c0.225-0.026,0.535,0.087,0.747,0.311c0.203,0.231,0.297,0.538,0.27,0.761c-0.023,0.224-0.114,0.343-0.105,0.344
							c0,0,0.013-0.146-0.03-0.337c-0.037-0.19-0.137-0.429-0.311-0.605c-0.161-0.189-0.391-0.3-0.58-0.339
							C1592.77,802.475,1592.618,802.488,1592.618,802.488z"/>
					</g>
					<g>
						<path fill="#FFFFFF" d="M1594.885,807.844c0,0,0.032-0.014,0.088-0.04c0.052-0.024,0.145-0.06,0.256-0.064
							c0.225-0.026,0.535,0.087,0.748,0.311c0.203,0.231,0.297,0.538,0.27,0.761c-0.023,0.224-0.114,0.343-0.105,0.344
							c0,0,0.013-0.146-0.03-0.337c-0.037-0.19-0.137-0.429-0.311-0.605c-0.161-0.189-0.391-0.3-0.58-0.339
							C1595.037,807.831,1594.885,807.844,1594.885,807.844z"/>
					</g>
					<g>
						<path fill="#FFFFFF" d="M1598.203,812.343c0,0,0.032-0.014,0.088-0.04c0.052-0.024,0.145-0.06,0.257-0.064
							c0.225-0.026,0.535,0.087,0.747,0.311c0.203,0.231,0.297,0.538,0.27,0.761c-0.023,0.224-0.114,0.343-0.105,0.344
							c0,0,0.013-0.146-0.03-0.337c-0.037-0.19-0.137-0.429-0.311-0.605c-0.161-0.189-0.391-0.3-0.58-0.339
							C1598.354,812.329,1598.203,812.343,1598.203,812.343z"/>
					</g>
					<g>
						<path fill="#FFFFFF" d="M1602.683,816.541c0,0,0.032-0.014,0.088-0.039c0.052-0.024,0.145-0.06,0.257-0.064
							c0.225-0.026,0.535,0.087,0.747,0.311c0.203,0.231,0.297,0.538,0.27,0.761c-0.023,0.224-0.114,0.343-0.105,0.344
							c0,0,0.013-0.146-0.03-0.337c-0.037-0.19-0.137-0.429-0.311-0.605c-0.161-0.189-0.391-0.3-0.58-0.339
							C1602.834,816.528,1602.683,816.541,1602.683,816.541z"/>
					</g>
					<g>
						<path fill="#FFFFFF" d="M1608.112,819.729c0,0,0.032-0.014,0.089-0.039c0.052-0.024,0.145-0.06,0.256-0.064
							c0.225-0.026,0.535,0.087,0.748,0.311c0.203,0.231,0.297,0.538,0.269,0.761c-0.023,0.224-0.114,0.343-0.105,0.344
							c0,0,0.013-0.146-0.03-0.337c-0.037-0.19-0.137-0.429-0.311-0.605c-0.161-0.189-0.391-0.3-0.58-0.339
							C1608.263,819.716,1608.112,819.729,1608.112,819.729z"/>
					</g>
					<g>
						<path fill="#FFFFFF" d="M1614.835,821.805c0,0,0.032-0.014,0.088-0.04c0.052-0.024,0.145-0.06,0.256-0.064
							c0.225-0.026,0.535,0.087,0.748,0.311c0.203,0.231,0.297,0.538,0.27,0.761c-0.023,0.224-0.114,0.343-0.105,0.344
							c0,0,0.013-0.146-0.03-0.337c-0.037-0.19-0.137-0.429-0.311-0.605c-0.161-0.189-0.391-0.3-0.58-0.339
							C1614.987,821.792,1614.835,821.805,1614.835,821.805z"/>
					</g>
				</g>
			</g>
		</g>
	</g>
</g>
<g>
	<g>
		<g>
			<path fill="#687A7A" d="M399.196,657.032h-20.618l-11.033,19.96l-11.033,19.96h41.414
				C417.733,696.952,438.934,657.032,399.196,657.032z"/>
			<path fill="#687A7A" d="M1519.498,657.767h20.328l11.322,19.96l10.744,19.96h-41.125
				C1500.961,697.687,1479.76,657.767,1519.498,657.767z"/>
		</g>
		<g>
			
				<ellipse transform="matrix(0.8374 0.5465 -0.5465 0.8374 435.2368 -110.7044)" fill="#3A4141" cx="403.706" cy="676.257" rx="11.945" ry="14.027"/>
			
				<ellipse transform="matrix(0.8374 0.5465 -0.5465 0.8374 435.2346 -110.6971)" fill="#121214" cx="403.693" cy="676.257" rx="8.773" ry="10.302"/>
			<g>
				<path fill="#FFFFFF" d="M407.249,668.75c0,0-0.249,0.081-0.685,0.19c-0.222,0.04-0.485,0.123-0.749,0.234
					c-0.272,0.106-0.559,0.197-0.879,0.364c-0.319,0.145-0.651,0.314-0.988,0.523c-0.349,0.177-0.671,0.45-1.028,0.676
					c-0.347,0.246-0.676,0.544-1.017,0.83c-0.327,0.308-0.671,0.603-0.974,0.947c-0.336,0.31-0.603,0.685-0.914,1.013
					c-0.255,0.37-0.582,0.689-0.803,1.059c-0.248,0.356-0.481,0.703-0.686,1.047c-0.214,0.34-0.367,0.68-0.553,0.99
					c-0.122,0.321-0.292,0.615-0.387,0.888c-0.081,0.273-0.2,0.519-0.249,0.727c-0.097,0.415-0.171,0.679-0.171,0.679
					s-0.094-0.232-0.226-0.686c-0.102-0.45-0.165-1.125-0.068-1.93c0.076-0.387,0.128-0.834,0.286-1.263
					c0.137-0.439,0.295-0.902,0.535-1.341c0.433-0.905,1.043-1.798,1.794-2.566c0.365-0.393,0.777-0.742,1.196-1.067
					c0.422-0.321,0.879-0.586,1.323-0.826c0.455-0.23,0.902-0.427,1.358-0.545c0.225-0.062,0.434-0.143,0.651-0.18
					c0.218-0.028,0.428-0.055,0.63-0.08c0.389-0.074,0.786-0.037,1.113-0.018c0.334,0.001,0.597,0.063,0.811,0.13
					C407.002,668.664,407.249,668.75,407.249,668.75z"/>
			</g>
		</g>
		<path fill="#687A7A" d="M521.736,494.622h-8.189l-31.088,20.211h38.309C535.874,514.833,552.043,494.622,521.736,494.622z"/>
		<g>
			<path fill="#3A4141" d="M532.805,507.661c3.229-3.284,2.431-7.427-1.782-9.252c-4.213-1.825-10.246-0.643-13.475,2.642
				s-2.431,7.427,1.782,9.252C523.543,512.128,529.576,510.945,532.805,507.661z"/>
			<path fill="#121214" d="M530.769,506.783c2.372-2.412,1.786-5.454-1.309-6.795c-3.094-1.341-7.525-0.472-9.897,1.94
				c-2.372,2.412-1.786,5.455,1.309,6.795C523.966,510.064,528.397,509.195,530.769,506.783z"/>
			<g>
				<path fill="#FFFFFF" d="M527.458,500.924c0,0-0.181,0.022-0.493,0.04c-0.156,0.003-0.348,0.016-0.548,0.052
					c-0.205,0.038-0.417,0.047-0.662,0.112c-0.242,0.057-0.498,0.106-0.762,0.196c-0.268,0.068-0.534,0.187-0.811,0.291
					c-0.279,0.099-0.543,0.266-0.823,0.394c-0.27,0.153-0.546,0.305-0.795,0.499c-0.273,0.159-0.506,0.372-0.751,0.563
					c-0.216,0.221-0.47,0.401-0.659,0.63c-0.418,0.425-0.744,0.877-1.007,1.29c-0.11,0.213-0.25,0.404-0.321,0.592
					c-0.074,0.186-0.179,0.348-0.213,0.492c-0.096,0.285-0.165,0.461-0.165,0.461s-0.045-0.169-0.1-0.49
					c-0.037-0.162-0.025-0.354-0.021-0.582c-0.008-0.233,0.048-0.48,0.105-0.758c0.057-0.278,0.167-0.564,0.293-0.864
					c0.148-0.285,0.289-0.606,0.51-0.882c0.199-0.295,0.437-0.574,0.699-0.839c0.28-0.243,0.552-0.51,0.871-0.716
					c0.311-0.217,0.649-0.387,0.982-0.554c0.339-0.152,0.688-0.271,1.032-0.354c0.342-0.092,0.681-0.142,1.005-0.154
					c0.319-0.042,0.627-0.005,0.904,0.021c0.274,0.006,0.536,0.097,0.753,0.147c0.225,0.045,0.393,0.127,0.534,0.194
					C527.299,500.836,527.458,500.924,527.458,500.924z"/>
			</g>
			<path fill="#687A7A" d="M1395.337,494.632h8.115l31.094,20.211h-38.241C1381.199,514.843,1365.03,494.632,1395.337,494.632z"/>
			<path fill="#3A4141" d="M1384.268,507.67c-3.229-3.284-2.431-7.427,1.782-9.252c4.213-1.825,10.246-0.643,13.475,2.642
				c3.229,3.284,2.431,7.427-1.782,9.252C1393.53,512.138,1387.497,510.955,1384.268,507.67z"/>
			<path fill="#121214" d="M1386.304,506.793c-2.371-2.412-1.786-5.454,1.309-6.795c3.094-1.341,7.525-0.472,9.897,1.94
				c2.371,2.412,1.786,5.454-1.309,6.795C1393.107,510.073,1388.676,509.205,1386.304,506.793z"/>
			<g>
				<path fill="#FFFFFF" d="M1392.812,500.628c0,0-0.171,0.025-0.465,0.049c-0.15-0.001-0.321,0.049-0.506,0.078
					c-0.182,0.025-0.389,0.086-0.615,0.143c-0.448,0.115-0.944,0.309-1.446,0.542c-0.249,0.123-0.496,0.264-0.735,0.418
					c-0.253,0.134-0.464,0.329-0.684,0.504c-0.208,0.186-0.417,0.371-0.572,0.588c-0.17,0.207-0.31,0.425-0.422,0.648
					c-0.048,0.115-0.088,0.23-0.147,0.34c-0.04,0.115-0.059,0.232-0.091,0.347c-0.081,0.229-0.049,0.462-0.086,0.684
					c-0.007,0.221,0.033,0.427,0.038,0.621c0.002,0.196,0.066,0.354,0.087,0.497c0.057,0.282,0.084,0.459,0.084,0.459
					s-0.121-0.114-0.323-0.341c-0.09-0.119-0.245-0.245-0.33-0.441c-0.095-0.19-0.239-0.402-0.314-0.665
					c-0.056-0.265-0.183-0.56-0.153-0.889c0.002-0.163-0.006-0.335,0.01-0.508c0.029-0.171,0.078-0.342,0.121-0.52
					c0.033-0.183,0.132-0.337,0.202-0.511c0.072-0.174,0.159-0.342,0.279-0.485c0.21-0.316,0.472-0.583,0.743-0.841
					c0.296-0.22,0.588-0.452,0.91-0.607c0.308-0.187,0.646-0.287,0.962-0.398c0.645-0.186,1.271-0.257,1.8-0.206
					c0.518,0.023,0.983,0.166,1.236,0.281C1392.662,500.544,1392.812,500.628,1392.812,500.628z"/>
			</g>
		</g>
	</g>
	<g>
		
			<ellipse transform="matrix(-0.8374 0.5465 -0.5465 -0.8374 3153.6902 415.914)" fill="#3A4141" cx="1514.988" cy="676.992" rx="11.945" ry="14.027"/>
		
			<ellipse transform="matrix(-0.8374 0.5465 -0.5465 -0.8374 3153.1433 414.0755)" fill="#121214" cx="1514.988" cy="675.992" rx="8.773" ry="10.302"/>
		<g>
			<path fill="#FFFFFF" d="M1518.233,668.484c0,0-0.263,0.068-0.723,0.156c-0.225,0.048-0.519,0.074-0.811,0.167
				c-0.299,0.091-0.623,0.159-0.971,0.267c-0.345,0.144-0.728,0.234-1.099,0.411c-0.376,0.167-0.76,0.348-1.134,0.574
				c-0.396,0.185-0.727,0.501-1.106,0.74c-0.333,0.308-0.703,0.577-1.002,0.929c-0.34,0.309-0.6,0.695-0.891,1.044
				c-0.249,0.381-0.533,0.738-0.731,1.134c-0.232,0.378-0.39,0.779-0.583,1.148c-0.126,0.389-0.322,0.747-0.414,1.103
				c-0.107,0.353-0.227,0.681-0.288,0.982c-0.066,0.3-0.158,0.568-0.184,0.791c-0.082,0.448-0.146,0.72-0.146,0.72
				s-0.103-0.244-0.251-0.701c-0.083-0.228-0.135-0.511-0.184-0.842c-0.068-0.333-0.089-0.71-0.083-1.127
				c-0.026-0.422,0.053-0.867,0.116-1.347c0.116-0.463,0.19-0.983,0.416-1.465c0.184-0.5,0.426-0.998,0.721-1.481
				c0.316-0.466,0.644-0.944,1.06-1.347c0.389-0.429,0.857-0.775,1.312-1.115c0.491-0.29,0.973-0.577,1.483-0.754
				c0.489-0.228,1.004-0.323,1.479-0.418c0.471-0.117,0.94-0.086,1.351-0.113c0.418-0.008,0.812,0.067,1.141,0.104
				c0.338,0.023,0.594,0.14,0.821,0.199C1517.979,668.386,1518.233,668.484,1518.233,668.484z"/>
		</g>
	</g>
</g>
<g>
	<g>
		<g>
			<polygon fill="#C08721" points="208.03,896.537 300,896.071 300,832 			"/>
			<polygon fill="#C08721" points="1708.672,896.657 1616.581,896.071 1616.581,832 			"/>
		</g>
		<path fill="#F9B146" d="M1707.031,896.071H209.549c-2.996,0-5.549,5.318-5.549,11.929v101.645h1508V908
			C1712,901.389,1710.028,896.071,1707.031,896.071z"/>
		<polygon fill="#D18E2B" points="1701.888,904.853 213.667,904.566 213.667,1000.456 1701.888,1000.456 		"/>
	</g>
	<g>
		<g>
			<g>
				<path fill="#F9B146" d="M1703.986,910.187h7.459v99.458H1620v-5.459C1620,967.088,1660.615,910.688,1703.986,910.187z"/>
				<path fill="#F9B146" d="M211.459,910.187H204v99.458h91.445v-5.459C295.445,967.088,254.83,910.688,211.459,910.187z"/>
			</g>
			<polygon fill="#D18E2B" points="219.366,896.071 300,896.071 300,838.291 			"/>
			<polygon fill="#D18E2B" points="1620,841.551 1620,896.071 1698.468,896.071 			"/>
		</g>
		<g>
			<g>
				<g>
					<polygon fill="#575A5B" points="958,983.689 906.725,954.831 958,922.027 1009.275,954.831 					"/>
					<path fill="#FFFFFF" d="M957.51,984.56l-50.836-29.638c-0.051-0.029-0.068-0.094-0.038-0.145
						c0.008-0.014,0.02-0.026,0.033-0.035l50.792-33.558c0.336-0.223,0.761-0.209,1.078,0l50.763,33.604
						c0.023,0.016,0.03,0.047,0.014,0.07l-0.017,0.016L958.49,984.56C958.177,984.743,957.802,984.73,957.51,984.56z
						 M958.001,982.551l51.25-27.764l-0.002,0.086l-51.787-32.004h1.078l-51.757,32.05l-0.005-0.18L958.001,982.551z"/>
				</g>
				<circle fill="#89918F" cx="958" cy="952.858" r="12.584"/>
				<circle fill="#121214" cx="958" cy="952.858" r="8.732"/>
			</g>
			<g>
				<path fill="#FFFFFF" d="M957.344,948.301c0,0-0.15-0.006-0.413-0.017c-0.139-0.009-0.295-0.013-0.412,0.003
					c-0.136,0.015-0.283-0.002-0.476,0.046c-0.749,0.112-1.776,0.521-2.628,1.261c-0.872,0.711-1.54,1.695-1.884,2.501
					c-0.074,0.205-0.167,0.39-0.206,0.565c-0.044,0.173-0.102,0.324-0.117,0.453c-0.043,0.259-0.067,0.406-0.067,0.406
					s-0.007-0.151-0.018-0.415c-0.011-0.134,0.013-0.293,0.021-0.48c0.003-0.189,0.056-0.392,0.089-0.622
					c0.179-0.904,0.654-2.094,1.459-3.099c0.388-0.514,0.867-0.965,1.364-1.344c0.499-0.377,1.031-0.661,1.517-0.847
					c0.229-0.109,0.496-0.164,0.716-0.226c0.239-0.067,0.401-0.094,0.524-0.112c0.259-0.044,0.408-0.069,0.408-0.069
					L957.344,948.301z"/>
			</g>
		</g>
		<g>
			<g>
				<path fill="#575A5B" d="M204,914.942v94.703h85.693C289.693,968,246,914.942,204,914.942z"/>
				<g>
					<g>
						<circle fill="#131719" cx="280.865" cy="1001.953" r="3.667"/>
					</g>
					<g>
						<circle fill="#131719" cx="273.052" cy="974.825" r="3.667"/>
					</g>
					<g>
						<circle fill="#131719" cx="257.648" cy="951.166" r="3.667"/>
					</g>
					<g>
						<circle fill="#131719" cx="236" cy="933.045" r="3.667"/>
					</g>
					<g>
						<circle fill="#131719" cx="210" cy="922.045" r="3.667"/>
					</g>
				</g>
				<g>
					<g>
						<path fill="#FFFFFF" d="M283.698,1002.349c0,0-0.048-0.111-0.117-0.307c-0.024-0.103-0.089-0.211-0.152-0.318
							c-0.053-0.111-0.135-0.224-0.234-0.346c-0.182-0.245-0.45-0.472-0.755-0.671c-0.151-0.105-0.324-0.181-0.499-0.26
							c-0.172-0.08-0.361-0.141-0.548-0.182c-0.755-0.208-1.535-0.108-2.095,0.16c-0.15,0.052-0.256,0.151-0.378,0.211
							c-0.12,0.064-0.207,0.143-0.285,0.206c-0.165,0.127-0.26,0.199-0.26,0.199s0.027-0.113,0.098-0.316
							c0.038-0.1,0.075-0.232,0.167-0.351c0.089-0.12,0.166-0.291,0.315-0.41c0.266-0.276,0.667-0.542,1.149-0.664
							c0.238-0.057,0.496-0.109,0.755-0.099c0.261,0.001,0.522,0.032,0.777,0.095c0.252,0.07,0.499,0.165,0.726,0.284
							c0.233,0.113,0.433,0.272,0.617,0.435c0.189,0.155,0.332,0.355,0.459,0.536c0.115,0.196,0.221,0.377,0.266,0.571
							c0.068,0.179,0.096,0.358,0.096,0.523c0.015,0.16,0.007,0.287-0.023,0.386
							C283.733,1002.233,283.698,1002.349,283.698,1002.349z"/>
					</g>
					<g>
						<path fill="#FFFFFF" d="M275.92,974.341c0,0-0.079-0.092-0.202-0.259c-0.053-0.092-0.147-0.176-0.239-0.26
							c-0.083-0.09-0.194-0.174-0.325-0.262c-0.245-0.181-0.569-0.32-0.919-0.421c-0.176-0.056-0.363-0.078-0.554-0.103
							c-0.188-0.026-0.386-0.03-0.577-0.014c-0.782,0.022-1.5,0.346-1.956,0.766c-0.128,0.094-0.201,0.219-0.3,0.312
							c-0.097,0.096-0.156,0.197-0.212,0.28c-0.121,0.169-0.19,0.266-0.19,0.266s-0.007-0.116,0.002-0.331
							c0.007-0.107,0.003-0.244,0.057-0.385c0.05-0.14,0.074-0.326,0.181-0.484c0.173-0.342,0.479-0.713,0.905-0.971
							c0.211-0.124,0.443-0.25,0.693-0.315c0.25-0.075,0.508-0.122,0.771-0.137c0.261-0.007,0.854,0.065,1.106,0.112
							c0.235,0.091,0.165,0.081,0.389,0.183c0.226,0.093,0.421,0.242,0.596,0.378c0.168,0.153,0.322,0.295,0.421,0.468
							c0.117,0.151,0.197,0.314,0.245,0.472c0.062,0.149,0.091,0.273,0.091,0.376C275.919,974.22,275.92,974.341,275.92,974.341z"/>
					</g>
					<g>
						<path fill="#FFFFFF" d="M260.131,949.89c0,0-0.102-0.065-0.269-0.189c-0.078-0.072-0.192-0.126-0.304-0.179
							c-0.106-0.062-0.237-0.11-0.388-0.156c-0.288-0.102-0.637-0.14-1.002-0.134c-0.184-0.002-0.37,0.032-0.559,0.063
							c-0.187,0.03-0.378,0.085-0.556,0.155c-0.742,0.25-1.333,0.769-1.647,1.304c-0.096,0.127-0.128,0.268-0.195,0.386
							c-0.064,0.12-0.092,0.234-0.121,0.33c-0.066,0.197-0.104,0.31-0.104,0.31s-0.041-0.109-0.095-0.317
							c-0.024-0.104-0.068-0.234-0.058-0.384c0.007-0.149-0.025-0.333,0.032-0.516c0.066-0.378,0.25-0.822,0.582-1.193
							c0.165-0.181,0.35-0.368,0.571-0.504c0.217-0.145,0.45-0.265,0.698-0.356c0.248-0.083,0.506-0.142,0.761-0.17
							c0.256-0.037,0.511-0.017,0.755,0.016c0.243,0.023,0.474,0.109,0.68,0.187c0.205,0.098,0.394,0.188,0.54,0.325
							c0.156,0.11,0.28,0.243,0.372,0.38c0.102,0.124,0.167,0.234,0.197,0.333C260.095,949.774,260.131,949.89,260.131,949.89z"/>
					</g>
					<g>
						<path fill="#FFFFFF" d="M238.15,931.359c0,0-0.117-0.032-0.312-0.102c-0.095-0.046-0.22-0.064-0.343-0.082
							c-0.119-0.028-0.258-0.036-0.416-0.036c-0.305-0.013-0.65,0.052-0.997,0.165c-0.177,0.052-0.344,0.138-0.516,0.224
							c-0.17,0.084-0.337,0.191-0.487,0.311c-0.636,0.456-1.05,1.126-1.194,1.729c-0.054,0.149-0.044,0.294-0.074,0.426
							c-0.026,0.134-0.019,0.251-0.019,0.351c-0.006,0.208-0.009,0.327-0.009,0.327s-0.071-0.092-0.183-0.275
							c-0.054-0.092-0.133-0.204-0.168-0.351c-0.037-0.144-0.122-0.312-0.121-0.503c-0.048-0.38-0.001-0.859,0.207-1.311
							c0.105-0.221,0.227-0.455,0.398-0.649c0.165-0.202,0.353-0.385,0.563-0.545c0.213-0.152,0.442-0.284,0.678-0.385
							c0.234-0.11,0.484-0.166,0.726-0.206c0.239-0.049,0.485-0.035,0.705-0.02c0.225,0.034,0.432,0.065,0.611,0.153
							c0.182,0.06,0.339,0.151,0.467,0.255c0.134,0.089,0.228,0.175,0.286,0.26C238.082,931.258,238.15,931.359,238.15,931.359z"/>
					</g>
					<g>
						<path fill="#FFFFFF" d="M211.459,919.531c0,0-0.121,0.003-0.329-0.006c-0.105-0.017-0.229,0.003-0.352,0.022
							c-0.122,0.008-0.258,0.041-0.408,0.088c-0.295,0.077-0.607,0.24-0.905,0.449c-0.154,0.101-0.289,0.233-0.428,0.365
							c-0.138,0.13-0.266,0.281-0.374,0.44c-0.475,0.622-0.675,1.383-0.636,2.002c-0.008,0.159,0.044,0.294,0.054,0.429
							c0.014,0.135,0.055,0.245,0.084,0.341c0.056,0.201,0.087,0.315,0.087,0.315s-0.094-0.068-0.256-0.21
							c-0.078-0.072-0.187-0.156-0.263-0.286c-0.078-0.127-0.207-0.262-0.262-0.446c-0.157-0.35-0.252-0.821-0.185-1.314
							c0.036-0.242,0.084-0.501,0.191-0.737c0.099-0.241,0.225-0.472,0.379-0.685c0.159-0.208,0.34-0.4,0.536-0.567
							c0.192-0.174,0.414-0.3,0.635-0.409c0.214-0.117,0.453-0.175,0.669-0.225c0.225-0.034,0.432-0.064,0.629-0.033
							c0.191,0.004,0.368,0.045,0.521,0.107c0.154,0.046,0.269,0.101,0.35,0.166C211.364,919.455,211.459,919.531,211.459,919.531z"
							/>
					</g>
				</g>
			</g>
			<g>
				<path fill="#575A5B" d="M1712,914.942v94.703h-85.693C1626.307,968,1670,914.942,1712,914.942z"/>
				<g>
					<g>
						<circle fill="#131719" cx="1634.689" cy="1001.977" r="3.667"/>
					</g>
					<g>
						<circle fill="#131719" cx="1642.503" cy="974.848" r="3.667"/>
					</g>
					<g>
						<circle fill="#131719" cx="1657.907" cy="951.19" r="3.667"/>
					</g>
					<g>
						<circle fill="#131719" cx="1679.555" cy="933.069" r="3.667"/>
					</g>
					<g>
						<circle fill="#131719" cx="1705.555" cy="922.069" r="3.667"/>
					</g>
				</g>
				<g>
					<g>
						<path fill="#FFFFFF" d="M1632.083,1002.349c0,0,0.049-0.111,0.117-0.307c0.024-0.103,0.089-0.211,0.152-0.318
							c0.053-0.111,0.135-0.224,0.234-0.346c0.182-0.245,0.45-0.472,0.755-0.671c0.151-0.105,0.324-0.181,0.499-0.26
							c0.172-0.08,0.361-0.141,0.548-0.182c0.755-0.208,1.536-0.108,2.095,0.16c0.15,0.052,0.256,0.151,0.378,0.211
							c0.12,0.064,0.207,0.143,0.285,0.206c0.165,0.127,0.26,0.199,0.26,0.199s-0.027-0.113-0.098-0.316
							c-0.038-0.1-0.075-0.232-0.167-0.351c-0.089-0.12-0.166-0.291-0.315-0.41c-0.266-0.276-0.667-0.542-1.149-0.664
							c-0.238-0.057-0.496-0.109-0.755-0.099c-0.261,0.001-0.522,0.032-0.777,0.095c-0.252,0.07-0.499,0.165-0.726,0.284
							c-0.233,0.112-0.433,0.271-0.617,0.435c-0.189,0.155-0.332,0.355-0.459,0.536c-0.115,0.196-0.221,0.377-0.266,0.571
							c-0.068,0.179-0.096,0.358-0.096,0.523c-0.015,0.16-0.007,0.287,0.023,0.386
							C1632.048,1002.233,1632.083,1002.349,1632.083,1002.349z"/>
					</g>
					<g>
						<path fill="#FFFFFF" d="M1639.765,974.341c0,0,0.079-0.092,0.202-0.259c0.053-0.092,0.146-0.176,0.239-0.26
							c0.083-0.09,0.194-0.174,0.325-0.262c0.245-0.181,0.568-0.32,0.919-0.421c0.176-0.056,0.363-0.078,0.554-0.103
							c0.188-0.026,0.386-0.03,0.577-0.014c0.782,0.022,1.5,0.346,1.956,0.766c0.129,0.094,0.201,0.219,0.3,0.312
							c0.097,0.096,0.156,0.197,0.212,0.28c0.121,0.169,0.19,0.266,0.19,0.266s0.007-0.116-0.002-0.331
							c-0.007-0.107-0.004-0.244-0.057-0.385c-0.05-0.14-0.073-0.326-0.181-0.484c-0.173-0.342-0.479-0.713-0.905-0.971
							c-0.211-0.124-0.443-0.25-0.693-0.315c-0.25-0.075-0.508-0.122-0.771-0.137c-0.261-0.007-0.854,0.065-1.106,0.112
							c-0.235,0.091-0.165,0.081-0.389,0.183c-0.226,0.093-0.421,0.242-0.596,0.378c-0.168,0.153-0.322,0.295-0.421,0.468
							c-0.117,0.151-0.197,0.314-0.245,0.472c-0.062,0.149-0.091,0.273-0.091,0.376
							C1639.766,974.22,1639.765,974.341,1639.765,974.341z"/>
					</g>
					<g>
						<path fill="#FFFFFF" d="M1655.257,949.89c0,0,0.102-0.065,0.269-0.189c0.078-0.072,0.192-0.126,0.304-0.179
							c0.106-0.062,0.237-0.11,0.388-0.156c0.288-0.102,0.637-0.14,1.002-0.134c0.184-0.002,0.37,0.032,0.559,0.063
							c0.187,0.03,0.378,0.085,0.556,0.155c0.742,0.25,1.333,0.769,1.647,1.304c0.095,0.127,0.128,0.268,0.195,0.386
							c0.064,0.12,0.092,0.234,0.121,0.33c0.066,0.197,0.104,0.31,0.104,0.31s0.041-0.109,0.095-0.317
							c0.025-0.104,0.068-0.234,0.058-0.384c-0.007-0.149,0.025-0.333-0.032-0.516c-0.066-0.378-0.25-0.822-0.582-1.193
							c-0.165-0.181-0.35-0.368-0.571-0.504c-0.217-0.145-0.45-0.265-0.698-0.356c-0.248-0.083-0.506-0.142-0.761-0.17
							c-0.256-0.037-0.511-0.017-0.755,0.016c-0.243,0.023-0.474,0.109-0.68,0.187c-0.205,0.098-0.394,0.188-0.54,0.325
							c-0.156,0.111-0.28,0.243-0.372,0.38c-0.102,0.124-0.167,0.234-0.197,0.333C1655.293,949.774,1655.257,949.89,1655.257,949.89
							z"/>
					</g>
					<g>
						<path fill="#FFFFFF" d="M1677.537,931.046c0,0,0.117-0.032,0.312-0.102c0.095-0.046,0.22-0.064,0.343-0.082
							c0.119-0.028,0.258-0.036,0.416-0.036c0.305-0.013,0.65,0.052,0.997,0.165c0.177,0.052,0.344,0.138,0.516,0.224
							c0.17,0.084,0.337,0.191,0.487,0.311c0.636,0.456,1.05,1.126,1.194,1.729c0.054,0.149,0.044,0.294,0.074,0.426
							c0.026,0.134,0.019,0.251,0.02,0.351c0.005,0.208,0.009,0.327,0.009,0.327s0.071-0.092,0.183-0.275
							c0.054-0.092,0.134-0.204,0.168-0.351c0.037-0.144,0.122-0.312,0.121-0.503c0.048-0.38,0.001-0.859-0.207-1.311
							c-0.105-0.221-0.227-0.455-0.398-0.649c-0.165-0.202-0.353-0.385-0.563-0.545c-0.213-0.152-0.442-0.284-0.678-0.385
							c-0.234-0.11-0.484-0.166-0.726-0.206c-0.239-0.049-0.484-0.035-0.705-0.02c-0.225,0.034-0.432,0.065-0.611,0.153
							c-0.182,0.06-0.339,0.151-0.467,0.255c-0.134,0.089-0.228,0.175-0.286,0.26
							C1677.606,930.946,1677.537,931.046,1677.537,931.046z"/>
					</g>
					<g>
						<path fill="#FFFFFF" d="M1704.541,919.531c0,0,0.121,0.003,0.329-0.006c0.105-0.017,0.229,0.003,0.352,0.022
							c0.122,0.008,0.258,0.041,0.408,0.088c0.295,0.077,0.607,0.24,0.905,0.449c0.154,0.101,0.289,0.233,0.428,0.365
							c0.139,0.13,0.266,0.281,0.374,0.44c0.475,0.622,0.675,1.383,0.636,2.002c0.008,0.159-0.044,0.294-0.054,0.429
							c-0.014,0.135-0.055,0.245-0.084,0.341c-0.056,0.201-0.087,0.315-0.087,0.315s0.094-0.068,0.256-0.21
							c0.078-0.072,0.187-0.156,0.263-0.286c0.078-0.127,0.207-0.262,0.262-0.446c0.157-0.35,0.252-0.821,0.185-1.314
							c-0.036-0.242-0.084-0.501-0.191-0.737c-0.099-0.241-0.225-0.472-0.379-0.685c-0.159-0.208-0.34-0.4-0.536-0.567
							c-0.192-0.174-0.414-0.3-0.635-0.409c-0.214-0.117-0.453-0.175-0.668-0.225c-0.225-0.034-0.432-0.064-0.629-0.033
							c-0.191,0.004-0.368,0.045-0.521,0.107c-0.154,0.046-0.269,0.101-0.349,0.166
							C1704.636,919.455,1704.541,919.531,1704.541,919.531z"/>
					</g>
				</g>
			</g>
		</g>
	</g>
</g>
<g>
	<g>
		<polyline fill="none" points="443.356,616.69 446.45,581.326 474.842,583.81 471.748,619.174 		"/>
		<path fill="#BFBFBF" d="M468.565,613.308c-3.277-1.178-6.471-2.46-9.259-3.707c-0.5-0.229-1-0.459-1.479-0.501
			c-5.879-0.738-10.548-5.529-9.848-13.527c0.696-7.962,6.011-12.66,12.719-12.073c6.746,0.59,10.675,6.207,10.032,13.544
			c-0.558,6.377-3.864,10.211-8.119,11.286l-0.013,0.147c2.415,0.843,5.055,1.668,7.124,2.221L468.565,613.308z M467.327,596.893
			c0.436-4.976-1.696-10.325-6.968-10.786c-5.419-0.475-8.512,4.307-8.945,9.691c-0.498,5.269,1.998,10.278,7.011,10.718
			C463.549,606.964,466.83,602.569,467.327,596.893z"/>
	</g>
	<g>
		<polyline fill="none" points="481.21,696.18 484.304,660.815 512.695,663.299 509.601,698.664 		"/>
		<path fill="#BFBFBF" d="M492.364,680.016l-3.265,7.589l-3.317-0.29l10.615-24.106l3.87,0.339l6.305,25.586l-3.428-0.3l-1.97-8.047
			L492.364,680.016z M500.729,678.222l-1.807-7.364c-0.411-1.67-0.651-3.177-0.894-4.647l-0.073-0.006
			c-0.499,1.442-1.036,2.918-1.647,4.388l-3.062,6.976L500.729,678.222z"/>
	</g>
	<g>
		<polyline fill="none" points="609.136,697.18 612.23,661.815 640.622,664.299 637.528,699.664 		"/>
		<path fill="#BFBFBF" d="M617.681,684.725c1.36,1.011,3.397,1.932,5.609,2.125c3.281,0.287,5.349-1.277,5.568-3.784
			c0.204-2.322-1.008-3.766-4.249-5.35c-3.929-1.792-6.252-4.112-5.945-7.615c0.339-3.87,3.797-6.464,8.626-6.042
			c2.543,0.223,4.334,0.974,5.386,1.696l-1.113,2.541c-0.772-0.513-2.367-1.396-4.615-1.592c-3.392-0.297-4.859,1.617-5.007,3.313
			c-0.203,2.322,1.208,3.598,4.52,5.225c4.061,1.989,6.021,4.204,5.702,7.854c-0.335,3.834-3.465,6.902-9.326,6.39
			c-2.396-0.209-4.952-1.14-6.201-2.14L617.681,684.725z"/>
	</g>
	<g>
		<polyline fill="none" points="738.064,696.18 741.158,660.815 769.549,663.299 766.455,698.664 		"/>
		<path fill="#BFBFBF" d="M745.666,662.879c1.98-0.124,4.321-0.143,6.865,0.08c4.607,0.403,7.795,1.76,9.792,3.977
			c2.034,2.222,3.073,5.21,2.721,9.228c-0.355,4.055-1.898,7.263-4.42,9.345c-2.526,2.119-6.468,3.036-11.297,2.614
			c-2.286-0.2-4.193-0.478-5.798-0.805L745.666,662.879z M746.95,685.129c0.798,0.218,1.975,0.358,3.228,0.468
			c6.856,0.6,10.915-2.908,11.502-9.616c0.549-5.858-2.442-9.871-9.225-10.465c-1.659-0.146-2.925-0.107-3.789,0.003L746.95,685.129
			z"/>
	</g>
	<g>
		<polyline fill="none" points="875.831,697.18 878.925,661.815 907.317,664.299 904.223,699.664 		"/>
		<path fill="#BFBFBF" d="M886.761,663.835l13.381,1.171l-0.235,2.691l-10.174-0.89l-0.723,8.256l9.4,0.822l-0.232,2.654l-9.4-0.822
			l-0.984,11.243l-3.207-0.281L886.761,663.835z"/>
	</g>
	<g>
		<polyline fill="none" points="384.39,773.777 387.484,738.412 415.876,740.896 412.782,776.261 		"/>
		<path fill="#BFBFBF" d="M394.464,740.654c1.571-0.122,3.618-0.167,6.198,0.06c3.17,0.277,5.428,1.218,6.787,2.674
			c1.26,1.299,1.914,3.176,1.72,5.389c-0.197,2.248-1.015,3.959-2.381,5.14c-1.854,1.658-4.699,2.337-7.833,2.063
			c-0.958-0.084-1.839-0.198-2.561-0.447l-0.871,9.952l-3.207-0.28L394.464,740.654z M396.623,752.914
			c0.685,0.247,1.563,0.397,2.632,0.491c3.87,0.339,6.394-1.335,6.694-4.764c0.287-3.28-1.897-5.068-5.436-5.378
			c-1.4-0.122-2.479-0.105-3.045-0.007L396.623,752.914z"/>
	</g>
	<g>
		<polyline fill="none" points="523.786,772.776 526.88,737.411 555.271,739.895 552.177,775.26 		"/>
		<path fill="#BFBFBF" d="M537.076,764.673l0.922-10.543l-6.601-14.989l3.649,0.319l2.902,7.162c0.794,1.965,1.399,3.54,2.021,5.34
			l0.073,0.007c0.842-1.56,1.832-3.108,2.956-4.905l4.175-6.542l3.649,0.319l-9.579,13.535l-0.926,10.58L537.076,764.673z"/>
	</g>
	<g>
		<polyline fill="none" points="662.137,772.776 665.231,737.411 693.623,739.895 690.529,775.26 		"/>
		<path fill="#BFBFBF" d="M682.947,765.33l-2.69-5.77c-1.106-2.213-1.798-3.648-2.446-5.153l-0.074-0.007
			c-0.827,1.376-1.643,2.643-3.123,4.703l-3.463,5.195l-3.686-0.323l8.693-11.905l-6.224-12.913l3.723,0.325l2.771,6.111
			c0.78,1.703,1.37,3.017,1.918,4.402l0.11,0.01c0.83-1.413,1.556-2.501,2.616-4.006l3.901-5.527l3.686,0.322l-8.615,11.43
			l6.625,13.432L682.947,765.33z"/>
	</g>
	<g>
		<polyline fill="none" points="794.858,772.776 797.952,737.411 826.344,739.895 823.25,775.26 		"/>
		<path fill="#BFBFBF" d="M819.333,764.833c-1.231,0.488-3.643,0.871-6.665,0.607c-7.003-0.613-11.888-5.498-11.175-13.645
			c0.681-7.778,6.413-12.588,14.117-11.914c3.097,0.271,4.992,1.105,5.801,1.623l-1.003,2.548c-1.165-0.695-2.858-1.29-4.923-1.471
			c-5.824-0.51-10.02,2.876-10.591,9.4c-0.532,6.081,2.627,10.295,8.673,10.824c1.953,0.171,3.979-0.061,5.324-0.574
			L819.333,764.833z"/>
	</g>
	<g>
		<polyline fill="none" points="685.301,616.912 688.395,581.547 716.786,584.031 713.692,619.396 		"/>
		<path fill="#BFBFBF" d="M707.849,597.882l-9.657-0.845l-0.784,8.957l10.764,0.941l-0.236,2.69l-13.97-1.223l2.174-24.845
			l13.418,1.174l-0.235,2.691l-10.211-0.893l-0.687,7.85l9.658,0.846L707.849,597.882z"/>
	</g>
	<g>
		<polyline fill="none" points="808.074,616.912 811.168,581.547 839.559,584.031 836.465,619.396 		"/>
		<path fill="#BFBFBF" d="M818.034,583.816c1.651-0.189,3.99-0.171,6.201,0.022c3.428,0.3,5.585,1.12,7.011,2.656
			c1.157,1.216,1.709,2.973,1.542,4.89c-0.287,3.281-2.542,5.274-5.237,5.93l-0.01,0.11c1.859,0.832,2.847,2.701,3.211,5.333
			c0.507,3.536,0.888,5.984,1.32,6.987l-3.317-0.29c-0.344-0.736-0.71-2.923-1.139-6.08c-0.438-3.492-1.652-4.898-4.554-5.265
			l-3.023-0.265l-0.942,10.764l-3.207-0.28L818.034,583.816z M820.25,595.414l3.281,0.286c3.428,0.301,5.768-1.39,6.016-4.229
			c0.281-3.206-1.919-4.811-5.307-5.144c-1.548-0.136-2.668-0.085-3.197,0.018L820.25,595.414z"/>
	</g>
	<g>
		<polyline fill="none" points="1084.174,619.921 1081.08,584.557 1109.472,582.073 1112.566,617.438 		"/>
		<path fill="#BFBFBF" d="M1088.232,608.404l12.022-21.371l-0.01-0.109l-12.606,1.104l-0.235-2.691l16.771-1.467l0.171,1.953
			l-11.955,21.289l0.01,0.111l13.897-1.216l0.235,2.69l-18.137,1.586L1088.232,608.404z"/>
	</g>
	<g>
		<polyline fill="none" points="1096.181,774.926 1093.087,739.561 1121.478,737.077 1124.572,772.442 		"/>
		<path fill="#BFBFBF" d="M1100.157,740.609c1.375-0.418,3.567-0.833,5.815-1.029c3.207-0.28,5.319,0.093,6.978,1.21
			c1.374,0.845,2.277,2.252,2.448,4.206c0.21,2.396-1.192,4.636-3.726,5.822l0.007,0.073c2.411,0.385,5.346,2.096,5.668,5.782
			c0.188,2.138-0.519,3.834-1.665,5.16c-1.594,1.737-4.331,2.719-8.386,3.073c-2.212,0.193-3.92,0.195-5.002,0.141L1100.157,740.609
			z M1104.254,750.503l2.912-0.255c3.392-0.297,5.227-2.24,5.018-4.637c-0.255-2.911-2.567-3.861-5.811-3.578
			c-1.475,0.129-2.313,0.314-2.819,0.471L1104.254,750.503z M1105.295,762.409c0.637,0.055,1.562,0.012,2.704-0.088
			c3.318-0.291,6.271-1.775,5.955-5.388c-0.297-3.392-3.331-4.537-6.833-4.23l-2.654,0.232L1105.295,762.409z"/>
	</g>
	<g>
		<polyline fill="none" points="1229.902,775.26 1226.808,739.895 1255.2,737.411 1258.294,772.776 		"/>
		<path fill="#BFBFBF" d="M1233.885,765.644l-2.173-24.845l3.502-0.307l9.062,11.873c2.098,2.752,3.765,5.242,5.166,7.682
			l0.07-0.041c-0.585-3.293-0.923-6.31-1.262-10.179l-0.909-10.396l3.023-0.265l2.173,24.845l-3.244,0.284l-8.99-11.918
			c-1.976-2.612-3.882-5.306-5.371-7.887l-0.107,0.047c0.459,3.117,0.794,6.097,1.154,10.226l0.929,10.615L1233.885,765.644z"/>
	</g>
	<g>
		<polyline fill="none" points="1365.917,775.545 1362.823,740.18 1394.473,737.411 1397.567,772.776 		"/>
		<path fill="#BFBFBF" d="M1388.893,753.273c-0.487-3.449-1.073-7.595-1.308-10.694l-0.11,0.01c-0.594,2.986-1.354,6.172-2.308,9.71
			l-3.332,12.438l-2.433,0.213l-5.054-11.48c-1.485-3.398-2.762-6.52-3.72-9.406l-0.074,0.007c0.197,3.103,0.378,7.284,0.482,11.026
			l0.268,10.711l-3.059,0.268l-0.441-24.996l4.092-0.358l5.29,11.646c1.3,2.97,2.387,5.624,3.239,8.148l0.11-0.01
			c0.407-2.561,1.054-5.365,1.885-8.596l3.372-12.404l4.092-0.357l3.723,24.709l-3.135,0.274L1388.893,753.273z"/>
	</g>
	<g>
		<polyline fill="none" points="1018.777,698.664 1015.683,663.299 1044.075,660.815 1047.169,696.18 		"/>
		<path fill="#BFBFBF" d="M1041.794,686.268c-1.392,0.642-4.156,1.738-7.511,2.031c-3.76,0.329-6.94-0.358-9.576-2.468
			c-2.318-1.877-3.936-5.078-4.274-8.949c-0.611-7.413,4.002-13.276,12.332-14.006c2.876-0.251,5.179,0.18,6.294,0.603l-0.546,2.685
			c-1.379-0.474-3.079-0.809-5.586-0.589c-6.045,0.529-9.661,4.634-9.115,10.864c0.551,6.303,4.673,9.693,10.461,9.187
			c2.102-0.184,3.513-0.604,4.218-1.037l-0.648-7.409l-5.05,0.442l-0.226-2.58l8.183-0.716L1041.794,686.268z"/>
	</g>
	<g>
		<polyline fill="none" points="1157.545,698.576 1154.451,663.211 1182.843,660.727 1185.937,696.092 		"/>
		<path fill="#BFBFBF" d="M1162.755,663.82l0.909,10.395l12.017-1.051l-0.909-10.395l3.244-0.284l2.173,24.844l-3.244,0.284
			l-1.019-11.647l-12.017,1.051l1.019,11.647l-3.207,0.28l-2.173-24.844L1162.755,663.82z"/>
	</g>
	<g>
		<polyline fill="none" points="1285.472,698.664 1282.378,663.299 1310.77,660.815 1313.864,696.18 		"/>
		<path fill="#BFBFBF" d="M1297.677,663.293l3.207-0.28l1.454,16.624c0.577,6.599-2.489,8.91-6.765,9.284
			c-1.18,0.103-2.64-0.029-3.48-0.289l0.25-2.66c0.687,0.2,1.665,0.337,2.733,0.244c2.875-0.252,4.458-1.69,4.032-6.557
			L1297.677,663.293z"/>
	</g>
	<g>
		<polyline fill="none" points="1413.399,698.664 1410.305,663.299 1438.696,660.815 1441.79,696.18 		"/>
		<path fill="#BFBFBF" d="M1417.429,664.01l3.207-0.28l1.048,11.979l0.11-0.01c0.58-1.017,1.166-1.959,1.722-2.825l6.777-9.989
			l3.981-0.349l-8.072,11.328l10.946,13.455l-3.797,0.332l-9.251-11.485l-2.12,2.934l0.828,9.474l-3.207,0.28L1417.429,664.01z"/>
	</g>
	<g>
		<polyline fill="none" points="1507.825,773.925 1504.731,738.56 1533.123,736.076 1536.217,771.441 		"/>
		<path fill="#BFBFBF" d="M1513.063,739.164l3.207-0.281l1.938,22.154l10.616-0.929l0.235,2.69l-13.823,1.21L1513.063,739.164z"/>
	</g>
	<g>
		<polyline fill="none" points="1207.309,619.396 1204.215,584.031 1232.606,581.547 1235.7,616.912 		"/>
		<path fill="#BFBFBF" d="M1212.528,584.636l1.287,14.708c0.486,5.566,3.163,7.71,6.48,7.42c3.687-0.322,5.832-2.963,5.352-8.455
			l-1.286-14.708l3.244-0.284l1.267,14.488c0.668,7.629-3.076,11.113-8.457,11.584c-5.088,0.445-9.176-2.131-9.85-9.835
			l-1.28-14.634L1212.528,584.636z"/>
	</g>
	<g>
		<polyline fill="none" points="1327.009,619.921 1323.915,584.557 1352.306,582.073 1355.401,617.438 		"/>
		<path fill="#BFBFBF" d="M1339.747,584.504l2.173,24.845l-3.207,0.28l-2.173-24.844L1339.747,584.504z"/>
	</g>
	<g>
		<g>
			<path fill="#BFBFBF" d="M1472.316,595.811c0.748,8.552-4.053,13.541-10.393,14.096c-6.562,0.574-11.614-4.11-12.272-11.631
				c-0.689-7.888,3.761-13.477,10.396-14.058C1466.83,583.625,1471.671,588.438,1472.316,595.811z M1453.073,597.902
				c0.465,5.309,3.756,9.813,8.806,9.37c5.087-0.445,7.553-5.378,7.06-11.019c-0.433-4.939-3.464-9.874-8.809-9.406
				C1454.821,587.312,1452.596,592.447,1453.073,597.902z"/>
		</g>
	</g>
	<g>
		<polyline fill="none" points="946.344,618.747 946.344,583.247 974.844,583.247 974.844,618.747 		"/>
		<path fill="#BFBFBF" d="M958.948,587.315h-7.585v-2.738h18.464v2.738h-7.622v22.201h-3.256V587.315z"/>
	</g>
	<g>
		<polyline fill="none" points="947.345,774.752 947.345,739.252 975.845,739.252 975.845,774.752 		"/>
		<path fill="#BFBFBF" d="M959.56,765.521l-8.141-24.939h3.479l3.885,12.284c1.073,3.367,1.998,6.401,2.664,9.325h0.074
			c0.703-2.887,1.739-6.031,2.85-9.288l4.218-12.321h3.441l-8.918,24.939H959.56z"/>
	</g>
	<g>
		<polyline fill="none" points="561.598,617.691 564.692,582.326 598.138,585.252 595.044,620.617 		"/>
		<path fill="#BFBFBF" d="M570.32,609.188l-4.129-25.396l3.391,0.296l1.849,12.828c0.466,3.161,0.859,6.315,1.092,8.75l0.074,0.006
			c0.621-2.434,1.654-5.314,2.782-8.447l4.414-12.243l3.354,0.294l1.919,12.871c0.443,3.01,0.848,6.018,0.988,8.667l0.073,0.006
			c0.755-2.683,1.698-5.387,2.743-8.414l4.377-12.246l3.281,0.287l-9.215,24.229l-3.354-0.294l-2.001-13.212
			c-0.497-3.238-0.8-5.716-0.912-8.253l-0.074-0.006c-0.658,2.432-1.424,4.816-2.626,7.942l-4.671,12.629L570.32,609.188z"/>
	</g>
</g>
<g>
	<g>
		<g>
			<g>
				<path fill="#435252" d="M1091.626,435.08c0-2.2-1.8-4-4-4h-6.635c-2.2,0-4,1.8-4,4v88.145c0,2.2,1.8,4,4,4h6.635
					c2.2,0,4-1.8,4-4V435.08z"/>
			</g>
			<g>
				<g>
					<rect x="1076.991" y="511.027" fill="#6E7877" width="14.635" height="5.5"/>
				</g>
				<g>
					<rect x="1076.991" y="498.617" fill="#6E7877" width="14.635" height="5.5"/>
				</g>
				<g>
					<rect x="1076.991" y="486.208" fill="#6E7877" width="14.635" height="5.5"/>
				</g>
				<g>
					<rect x="1076.991" y="473.798" fill="#6E7877" width="14.635" height="5.5"/>
				</g>
				<g>
					<rect x="1076.991" y="461.388" fill="#6E7877" width="14.635" height="5.5"/>
				</g>
				<g>
					<rect x="1076.991" y="448.979" fill="#6E7877" width="14.635" height="5.5"/>
				</g>
				<g>
					<rect x="1076.991" y="436.569" fill="#6E7877" width="14.635" height="5.5"/>
				</g>
			</g>
		</g>
	</g>
	<g>
		<g>
			<g>
				<path fill="#435252" d="M941.626,435.08c0-2.2-1.8-4-4-4h-6.635c-2.2,0-4,1.8-4,4v88.145c0,2.2,1.8,4,4,4h6.635c2.2,0,4-1.8,4-4
					V435.08z"/>
			</g>
			<g>
				<g>
					<rect x="926.991" y="511.027" fill="#6E7877" width="14.635" height="5.5"/>
				</g>
				<g>
					<rect x="926.991" y="498.617" fill="#6E7877" width="14.635" height="5.5"/>
				</g>
				<g>
					<rect x="926.991" y="486.208" fill="#6E7877" width="14.635" height="5.5"/>
				</g>
				<g>
					<rect x="926.991" y="473.798" fill="#6E7877" width="14.635" height="5.5"/>
				</g>
				<g>
					<rect x="926.991" y="461.388" fill="#6E7877" width="14.635" height="5.5"/>
				</g>
				<g>
					<rect x="926.991" y="448.979" fill="#6E7877" width="14.635" height="5.5"/>
				</g>
				<g>
					<rect x="926.991" y="436.569" fill="#6E7877" width="14.635" height="5.5"/>
				</g>
			</g>
		</g>
	</g>
	<g>
		<g>
			<g>
				<path fill="#435252" d="M791.626,435.08c0-2.2-1.8-4-4-4h-6.635c-2.2,0-4,1.8-4,4v88.145c0,2.2,1.8,4,4,4h6.635c2.2,0,4-1.8,4-4
					V435.08z"/>
			</g>
			<g>
				<g>
					<rect x="776.991" y="511.027" fill="#6E7877" width="14.635" height="5.5"/>
				</g>
				<g>
					<rect x="776.991" y="498.617" fill="#6E7877" width="14.635" height="5.5"/>
				</g>
				<g>
					<rect x="776.991" y="486.208" fill="#6E7877" width="14.635" height="5.5"/>
				</g>
				<g>
					<rect x="776.991" y="473.798" fill="#6E7877" width="14.635" height="5.5"/>
				</g>
				<g>
					<rect x="776.991" y="461.388" fill="#6E7877" width="14.635" height="5.5"/>
				</g>
				<g>
					<rect x="776.991" y="448.979" fill="#6E7877" width="14.635" height="5.5"/>
				</g>
				<g>
					<rect x="776.991" y="436.569" fill="#6E7877" width="14.635" height="5.5"/>
				</g>
			</g>
		</g>
	</g>
</g>
<g>
	<g>
		<path fill="#4C5558" d="M1165.148,525.165c0.658,3.793-1.953,6.897-5.803,6.897h-44.668c-3.85,0-6.394-3.091-5.652-6.869
			l8.718-44.439c0.741-3.778,4.498-6.899,8.347-6.935l23.1-0.216c3.85-0.036,7.538,3.038,8.197,6.831L1165.148,525.165z"/>
	</g>
	<g>
		<path fill="#4C5558" d="M1015.148,525.165c0.658,3.793-1.953,6.897-5.803,6.897h-44.668c-3.85,0-6.394-3.091-5.652-6.869
			l8.718-44.439c0.741-3.778,4.497-6.899,8.347-6.935l23.1-0.216c3.85-0.036,7.538,3.038,8.196,6.831L1015.148,525.165z"/>
	</g>
	<g>
		<path fill="#4C5558" d="M865.148,525.165c0.658,3.793-1.953,6.897-5.803,6.897h-44.668c-3.85,0-6.394-3.091-5.652-6.869
			l8.718-44.439c0.741-3.778,4.497-6.899,8.347-6.935l23.1-0.216c3.85-0.036,7.538,3.038,8.196,6.831L865.148,525.165z"/>
	</g>
</g>
<g>
</g>
<g>
</g>
<g>
</g>
<g>
</g>
<g>
</g>
</svg>
